<svg width="44" height="44" viewBox="0 0 44 44" fill="none" xmlns="http://www.w3.org/2000/svg">
<g id="1stGame">
<path id="Vector" d="M38.32 12.1125C38.7307 11.8018 39 11.3149 39 10.76C39 10.3091 38.8209 9.87673 38.5021 9.55792C38.1833 9.23911 37.7509 9.06 37.3 9.06C36.8491 9.06 36.4167 9.23911 36.0979 9.55792C35.7791 9.87673 35.6 10.3091 35.6 10.76C35.6006 11.0227 35.6624 11.2817 35.7804 11.5165C35.8985 11.7512 36.0695 11.9553 36.28 12.1125V22.66H30.16V28.1H36.96V27.898C37.462 27.6955 37.8921 27.3476 38.195 26.899C38.4979 26.4503 38.6599 25.9213 38.66 25.38C38.66 24.9101 38.5301 24.4742 38.32 24.0887V12.1125ZM9.08 16.54C9.77428 16.54 10.2564 16.657 11.12 16.54C11.12 16.54 8.38912 18.3529 8.38912 20.62H11.8C11.8 20.62 11.8041 16.8433 13.84 14.5L13.16 13.82C13.16 13.82 11.8 14.5 10.44 13.82C10.44 13.82 9.08 13.82 7.72 14.5V13.82H7.04V17.9H7.72C7.72 17.9 7.72 16.54 9.08 16.54ZM18.6 16.54C19.2943 16.54 19.7764 16.657 20.64 16.54C20.64 16.54 17.9091 18.3529 17.9091 20.62H21.32C21.32 20.62 21.3241 16.8433 23.36 14.5L22.68 13.82C22.68 13.82 21.32 14.5 19.96 13.82C19.96 13.82 18.6 13.82 17.24 14.5V13.82H16.56V17.9H17.24C17.24 17.9 17.24 16.54 18.6 16.54ZM30.84 9.74V8.38H22.5984C22.2883 7.01864 21.0759 6 19.62 6C18.1641 6 16.9517 7.01864 16.6416 8.38H8.4V9.74H5V37.62H34.92V9.74H30.84ZM15.88 12.46H24.04V21.98H15.88V12.46ZM6.36 12.46H14.52V21.98H6.36V12.46ZM30.84 34.22H8.4V29.46H30.84V34.22ZM33.56 21.98H25.4V12.46H33.56V21.98ZM28.12 16.54C28.8143 16.54 29.2964 16.657 30.16 16.54C30.16 16.54 27.4291 18.3529 27.4291 20.62H30.84C30.84 20.62 30.8441 16.8433 32.88 14.5L32.2 13.82C32.2 13.82 30.84 14.5 29.48 13.82C29.48 13.82 28.12 13.82 26.76 14.5V13.82H26.08V17.9H26.76C26.76 17.9 26.76 16.54 28.12 16.54Z" fill="url(#paint0_linear_140_89)"/>
</g>
<defs>
<linearGradient id="paint0_linear_140_89" x1="5" y1="5.75272" x2="39" y2="37.4345" gradientUnits="userSpaceOnUse">
<stop offset="0.211222" stop-color="#CA9328"/>
<stop offset="0.5" stop-color="#FFE169"/>
<stop offset="0.800426" stop-color="#CA9328"/>
</linearGradient>
</defs>
</svg>
