<svg width="1572" height="622" viewBox="0 0 1572 622" fill="none" xmlns="http://www.w3.org/2000/svg">
<path d="M1572 47V0H1525V11H46V0H0V46H11V576H1V622H47V612H1526V622H1572V576H1561V47H1572ZM1530 16H1556V42H1552V21H1530V16ZM1483 566.6V534.7L1525.5 578L1516.4 587.1L1483 566.6ZM1512.7 590.7L1507.5 596H1483V572.5L1512.7 590.7ZM1478 526V566H1356.6L1321.9 596H250.1L215.4 566H94V526H53.5V405.6L25 372V249.7L53.5 215.4V94H94V54H215.4L248.4 26H1321.6L1354.6 54H1476V94H1516.5V215.4L1547 252.1V372L1518.5 405.6V526H1478ZM1371.5 579L1354.5 596H1329.5L1358.4 571H1478V579H1371.5ZM1478 584V596H1361.5L1373.5 584H1478ZM200.5 579H94V571H213.6L242.5 596H217.5L200.5 579ZM210.5 596H94V584H198.5L210.5 596ZM56.3 586.7L47 577.5L89 534.7V566.6L56.3 586.7ZM89 572.5V596H65.5L59.9 590.3L89 572.5ZM58.5 596H47V584.5L58.5 596ZM16 361.5V260.6L20 255.8V366.2L16 361.5ZM20 373.9V576H16V369.2L20 373.9ZM16 252.7V46H20V247.9L16 252.7ZM16 41V16H41V21H20V41H16ZM42 200.5V94H48.5V213.6L25 241.9V217.5L42 200.5ZM25 210.5V94H37V198.5L25 210.5ZM25 89V64.5L30.6 59L47.2 89H25ZM25 57.5V46H36.5L25 57.5ZM25 41V26H41V41H25ZM25 410.5L37 422.5V526H25V410.5ZM25 562.5L38.5 576H25V562.5ZM25 555.5V531H47.7L30.2 560.6L25 555.5ZM42 526V420.5L25 403.5V379.8L48.5 407.4V526H42ZM89 54.1V86L47 42.5L55.3 34.3L89 54.1ZM58.9 30.6L63.5 26H89V48.3L58.9 30.6ZM200.5 42L216.5 26H240.7L213.6 49H94V42H200.5ZM94 37V26H209.5L198.5 37H94ZM1369.5 42H1476V49H1356.4L1329.3 26H1353.5L1369.5 42ZM1360.5 26H1476V37H1371.5L1360.5 26ZM1515.4 33.9L1523.5 42L1481 86V54.1L1515.4 33.9ZM1481 48.3V26H1507.5L1511.7 30.2L1481 48.3ZM1514.5 26H1525V36.5L1514.5 26ZM1547 65.5V89H1522.8L1539.8 58.3L1547 65.5ZM1535.5 47H1547V58.5L1535.5 47ZM1547 94V212.5L1533 198.5V94H1547ZM1528 94V200.5L1547 219.5V244.3L1521.5 213.6V94H1528ZM1523.5 407.4L1547 379.8V403.5L1530 420.5V526H1523.5V407.4ZM1547 410.5V526H1535V422.5L1547 410.5ZM1547 531V556.5L1542.2 561.3L1524.3 531H1547ZM1547 563.5V576H1534.5L1547 563.5ZM1547 581V596H1531V581H1547ZM1552 601V581H1556V607H1531V601H1552ZM1552 576V373.9L1556 369.2V576H1552ZM1552 366.2V258.2L1556 263V361.5L1552 366.2ZM1552 250.3V47H1556V255.1L1552 250.3ZM1530 26H1547V42H1530V26ZM1525.6 47H1528.5L1536.1 54.6L1517 89H1485.1L1525.6 47ZM1525 16V21H1323.4L1317.6 16H1525ZM260.2 16H1309.8L1315.7 21H254.3L260.2 16ZM46 16H252.4L246.5 21H46V16ZM46 26H56.5L46 36.5V26ZM84.9 89H53L34.2 55.3L43.5 46L84.9 89ZM5 41V5H41V11H11V41H5ZM42 617H6V581H11V612H42V617ZM42 607H16V581H20V601H42V607ZM42 596H25V581H42V596ZM43.5 574L33.8 564.3L53.5 531H85.7L43.5 574ZM47 607V601H248.3L255.2 607H47ZM1309.1 607H262.9L255.9 601H1316.1L1309.1 607ZM1526 607H1316.8L1323.7 601H1526V607ZM1526 596H1514.5L1526 584.5V596ZM1486.3 531H1518.6L1538.5 564.9L1529 574.5L1486.3 531ZM1567 581V617H1531V612H1561V581H1567ZM1530 11V5H1567V42H1561V11H1530Z" fill="url(#paint0_linear_175_23)"/>
<defs>
<linearGradient id="paint0_linear_175_23" x1="-20.88" y1="1.52001" x2="1596.47" y2="621.47" gradientUnits="userSpaceOnUse">
<stop stop-color="#CA9328"/>
<stop offset="0.49" stop-color="#FFE169"/>
<stop offset="1" stop-color="#CA9328"/>
</linearGradient>
</defs>
</svg>
