<svg width="1572" height="622" viewBox="0 0 1572 622" fill="none" xmlns="http://www.w3.org/2000/svg">
<g filter="url(#filter0_d_1184_113)">
<rect x="924" y="31" width="3" height="560" fill="url(#paint0_linear_1184_113)"/>
</g>
<g filter="url(#filter1_d_1184_113)">
<rect x="368" y="31" width="3" height="560" fill="url(#paint1_linear_1184_113)"/>
</g>
<g filter="url(#filter2_d_1184_113)">
<rect x="91" y="31" width="3" height="560" fill="url(#paint2_linear_1184_113)"/>
</g>
<g filter="url(#filter3_d_1184_113)">
<rect x="1478" y="26" width="3" height="560" fill="url(#paint3_linear_1184_113)"/>
</g>
<g filter="url(#filter4_d_1184_113)">
<rect x="1201" y="31" width="3" height="560" fill="url(#paint4_linear_1184_113)"/>
</g>
<g filter="url(#filter5_d_1184_113)">
<rect x="646" y="31" width="3" height="560" fill="url(#paint5_linear_1184_113)"/>
</g>
<path d="M1516.5 215.4V94H1476V54H1354.6L1321.6 26H248.4L215.4 54H94V94H53.5V215.4L25 249.7V372L53.5 405.6V526H94V566H215.4L250.1 596H1321.9L1356.6 566H1478V526H1518.5V405.6L1547 372V252.1L1516.5 215.4ZM1543 371L1514.6 403.9V522.2H1474.4V561.5H1353.6L1319.1 591H253L218.4 561.5H97.6V522.2H57.4V403.9L29 371V250.8L57.4 217.1V97.8H97.6V58.5H218.4L251.2 31H1318.8L1351.6 58.5H1472.4V97.8H1512.7V217.1L1543 253.2V371Z" fill="#0A0A0A"/>
<g filter="url(#filter6_d_1184_113)">
<path fill-rule="evenodd" clip-rule="evenodd" d="M1549 282L1525.03 310H46.9662L23 282V292.515L14 282L14 341L23 330.485V341L46.9661 313H1525.03L1549 341V330.193L1558.25 341V282L1549 292.807V282ZM23 325.764L16.019 333.92L16.019 289.08L23 297.236L23 325.764ZM25.019 328.126L39.25 311.5L25.019 294.874V289.08L44.0003 311.256V311.744L25.019 333.92V328.126ZM25.019 323.405L25.019 299.595L35.209 311.5L25.019 323.405ZM1546.98 295.166V289.08L1527.79 311.5L1546.98 333.92V327.834L1533 311.5L1546.98 295.166ZM1546.98 323.113L1537.04 311.5L1546.98 299.887V323.113ZM1549 297.528L1556.23 289.08V333.92L1549 325.472V297.528Z" fill="url(#paint6_linear_1184_113)"/>
</g>
<path d="M1572 47V0H1525V11H46V0H0V46H11V576H1V622H47V612H1526V622H1572V576H1561V47H1572ZM1530 16H1556V42H1552V21H1530V16ZM1483 566.6V534.7L1525.5 578L1516.4 587.1L1483 566.6ZM1512.7 590.7L1507.5 596H1483V572.5L1512.7 590.7ZM1478 526V566H1356.6L1321.9 596H250.1L215.4 566H94V526H53.5V405.6L25 372V249.7L53.5 215.4V94H94V54H215.4L248.4 26H1321.6L1354.6 54H1476V94H1516.5V215.4L1547 252.1V372L1518.5 405.6V526H1478ZM1371.5 579L1354.5 596H1329.5L1358.4 571H1478V579H1371.5ZM1478 584V596H1361.5L1373.5 584H1478ZM200.5 579H94V571H213.6L242.5 596H217.5L200.5 579ZM210.5 596H94V584H198.5L210.5 596ZM56.3 586.7L47 577.5L89 534.7V566.6L56.3 586.7ZM89 572.5V596H65.5L59.9 590.3L89 572.5ZM58.5 596H47V584.5L58.5 596ZM16 361.5V260.6L20 255.8V366.2L16 361.5ZM20 373.9V576H16V369.2L20 373.9ZM16 252.7V46H20V247.9L16 252.7ZM16 41V16H41V21H20V41H16ZM42 200.5V94H48.5V213.6L25 241.9V217.5L42 200.5ZM25 210.5V94H37V198.5L25 210.5ZM25 89V64.5L30.6 59L47.2 89H25ZM25 57.5V46H36.5L25 57.5ZM25 41V26H41V41H25ZM25 410.5L37 422.5V526H25V410.5ZM25 562.5L38.5 576H25V562.5ZM25 555.5V531H47.7L30.2 560.6L25 555.5ZM42 526V420.5L25 403.5V379.8L48.5 407.4V526H42ZM89 54.1V86L47 42.5L55.3 34.3L89 54.1ZM58.9 30.6L63.5 26H89V48.3L58.9 30.6ZM200.5 42L216.5 26H240.7L213.6 49H94V42H200.5ZM94 37V26H209.5L198.5 37H94ZM1369.5 42H1476V49H1356.4L1329.3 26H1353.5L1369.5 42ZM1360.5 26H1476V37H1371.5L1360.5 26ZM1515.4 33.9L1523.5 42L1481 86V54.1L1515.4 33.9ZM1481 48.3V26H1507.5L1511.7 30.2L1481 48.3ZM1514.5 26H1525V36.5L1514.5 26ZM1547 65.5V89H1522.8L1539.8 58.3L1547 65.5ZM1535.5 47H1547V58.5L1535.5 47ZM1547 94V212.5L1533 198.5V94H1547ZM1528 94V200.5L1547 219.5V244.3L1521.5 213.6V94H1528ZM1523.5 407.4L1547 379.8V403.5L1530 420.5V526H1523.5V407.4ZM1547 410.5V526H1535V422.5L1547 410.5ZM1547 531V556.5L1542.2 561.3L1524.3 531H1547ZM1547 563.5V576H1534.5L1547 563.5ZM1547 581V596H1531V581H1547ZM1552 601V581H1556V607H1531V601H1552ZM1552 576V373.9L1556 369.2V576H1552ZM1552 366.2V258.2L1556 263V361.5L1552 366.2ZM1552 250.3V47H1556V255.1L1552 250.3ZM1530 26H1547V42H1530V26ZM1525.6 47H1528.5L1536.1 54.6L1517 89H1485.1L1525.6 47ZM1525 16V21H1323.4L1317.6 16H1525ZM260.2 16H1309.8L1315.7 21H254.3L260.2 16ZM46 16H252.4L246.5 21H46V16ZM46 26H56.5L46 36.5V26ZM84.9 89H53L34.2 55.3L43.5 46L84.9 89ZM5 41V5H41V11H11V41H5ZM42 617H6V581H11V612H42V617ZM42 607H16V581H20V601H42V607ZM42 596H25V581H42V596ZM43.5 574L33.8 564.3L53.5 531H85.7L43.5 574ZM47 607V601H248.3L255.2 607H47ZM1309.1 607H262.9L255.9 601H1316.1L1309.1 607ZM1526 607H1316.8L1323.7 601H1526V607ZM1526 596H1514.5L1526 584.5V596ZM1486.3 531H1518.6L1538.5 564.9L1529 574.5L1486.3 531ZM1567 581V617H1531V612H1561V581H1567ZM1530 11V5H1567V42H1561V11H1530Z" fill="url(#paint7_linear_1184_113)"/>
<path d="M1315.7 21H254.3L260.2 16H1309.8L1315.7 21Z" fill="#0A0A0A"/>
<path d="M41 5V11H11V41H5V5H41Z" fill="#0A0A0A"/>
<path d="M41 16V21H20V41H16V16H41Z" fill="#0A0A0A"/>
<path d="M36.5 46L25 57.5V46H36.5Z" fill="#0A0A0A"/>
<path d="M41 26H25V41H41V26Z" fill="#0A0A0A"/>
<path d="M56.5 26L46 36.5V26H56.5Z" fill="#0A0A0A"/>
<path d="M252.4 16L246.6 21H46V16H252.4Z" fill="#0A0A0A"/>
<path d="M240.7 26L213.6 49H94V42H200.5L216.5 26H240.7Z" fill="#0A0A0A"/>
<path d="M209.5 26L198.5 37H94V26H209.5Z" fill="#0A0A0A"/>
<path d="M89.0004 26V48.3L58.9004 30.6L63.5004 26H89.0004Z" fill="#0A0A0A"/>
<path d="M89 54.1V86L47 42.5L55.3 34.3L89 54.1Z" fill="#0A0A0A"/>
<path d="M84.8998 89H52.9998L34.2998 55.3L43.4998 46L84.8998 89Z" fill="#0A0A0A"/>
<path d="M47.3 89H25V64.5L30.6 59L47.3 89Z" fill="#0A0A0A"/>
<path d="M37 94V198.5L25 210.5V94H37Z" fill="#0A0A0A"/>
<path d="M48.5 94V213.6L25 241.9V217.5L42 200.5V94H48.5Z" fill="#0A0A0A"/>
<path d="M20 46V247.9L16 252.7V46H20Z" fill="#0A0A0A"/>
<path d="M20 255.8V366.2L16 361.5V260.6L20 255.8Z" fill="#0A0A0A"/>
<path d="M48.5 407.4V526H42V420.5L25 403.5V379.8L48.5 407.4Z" fill="#0A0A0A"/>
<path d="M37 422.5V526H25V410.5L37 422.5Z" fill="#0A0A0A"/>
<path d="M20 373.9V576H16V369.2L20 373.9Z" fill="#0A0A0A"/>
<path d="M42 612V617H6V581H11V612H42Z" fill="#0A0A0A"/>
<path d="M42 601V607H16V581H20V601H42Z" fill="#0A0A0A"/>
<path d="M42 581H25V596H42V581Z" fill="#0A0A0A"/>
<path d="M58.5 596H47V584.5L58.5 596Z" fill="#0A0A0A"/>
<path d="M38.5 576H25V562.5L38.5 576Z" fill="#0A0A0A"/>
<path d="M47.6 531L30.2 560.6L25 555.5V531H47.6Z" fill="#0A0A0A"/>
<path d="M85.6998 531L43.4998 574L33.7998 564.3L53.4998 531H85.6998Z" fill="#0A0A0A"/>
<path d="M89 534.7V566.6L56.3 586.7L47 577.5L89 534.7Z" fill="#0A0A0A"/>
<path d="M89.0004 572.5V596H65.5004L59.9004 590.4L89.0004 572.5Z" fill="#0A0A0A"/>
<path d="M210.5 596H94V584H198.5L210.5 596Z" fill="#0A0A0A"/>
<path d="M242.5 596H217.5L200.5 579H94V571H213.6L242.5 596Z" fill="#0A0A0A"/>
<path d="M255.2 607H47V601H248.3L255.2 607Z" fill="#0A0A0A"/>
<path d="M1316.1 601L1309.1 607H262.9L255.9 601H1316.1Z" fill="#0A0A0A"/>
<path d="M1478 571V579H1371.5L1354.5 596H1329.5L1358.4 571H1478Z" fill="#0A0A0A"/>
<path d="M1478 584V596H1361.5L1373.5 584H1478Z" fill="#0A0A0A"/>
<path d="M1526 601V607H1316.8L1323.7 601H1526Z" fill="#0A0A0A"/>
<path d="M1567 581V617H1531V612H1561V581H1567Z" fill="#0A0A0A"/>
<path d="M1556 581V607H1531V601H1552V581H1556Z" fill="#0A0A0A"/>
<path d="M1547 563.5V576H1534.5L1547 563.5Z" fill="#0A0A0A"/>
<path d="M1547 581H1531V596H1547V581Z" fill="#0A0A0A"/>
<path d="M1526 584.5V596H1514.5L1526 584.5Z" fill="#0A0A0A"/>
<path d="M1512.7 590.7L1507.5 596H1483V572.5L1512.7 590.7Z" fill="#0A0A0A"/>
<path d="M1525.5 578L1516.4 587.1L1483 566.6V534.7L1525.5 578Z" fill="#0A0A0A"/>
<path d="M1538.5 564.9L1529 574.5L1486.3 531H1518.5L1538.5 564.9Z" fill="#0A0A0A"/>
<path d="M1547 531V556.5L1542.2 561.3L1524.3 531H1547Z" fill="#0A0A0A"/>
<path d="M1547 379.8V403.5L1530 420.5V526H1523.5V407.4L1547 379.8Z" fill="#0A0A0A"/>
<path d="M1547 410.5V526H1535V422.5L1547 410.5Z" fill="#0A0A0A"/>
<path d="M1556 369.2V576H1552V373.9L1556 369.2Z" fill="#0A0A0A"/>
<path d="M1556 263V361.5L1552 366.2V258.2L1556 263Z" fill="#0A0A0A"/>
<path d="M1547 219.5V244.3L1521.5 213.6V94H1528V200.5L1547 219.5Z" fill="#0A0A0A"/>
<path d="M1547 94V212.5L1533 198.5V94H1547Z" fill="#0A0A0A"/>
<path d="M1476 26V37H1371.5L1360.5 26H1476Z" fill="#0A0A0A"/>
<path d="M1476 42V49H1356.4L1329.3 26H1353.5L1369.5 42H1476Z" fill="#0A0A0A"/>
<path d="M1525 16V21H1323.5L1317.6 16H1525Z" fill="#0A0A0A"/>
<path d="M1556 47V255.2L1552 250.3V47H1556Z" fill="#0A0A0A"/>
<path d="M1567 5V42H1561V11H1530V5H1567Z" fill="#0A0A0A"/>
<path d="M1556 16V42H1552V21H1530V16H1556Z" fill="#0A0A0A"/>
<path d="M1525 26V36.5L1514.5 26H1525Z" fill="#0A0A0A"/>
<path d="M1547 47V58.5L1535.5 47H1547Z" fill="#0A0A0A"/>
<path d="M1547 26H1530V42H1547V26Z" fill="#0A0A0A"/>
<path d="M1547 65.5V89H1522.8L1539.8 58.3L1547 65.5Z" fill="#0A0A0A"/>
<path d="M1511.7 30.2L1481 48.3V26H1507.5L1511.7 30.2Z" fill="#0A0A0A"/>
<path d="M1523.5 42L1481 86V54.1L1515.4 33.9L1523.5 42Z" fill="#0A0A0A"/>
<path d="M1536.1 54.6L1517 89H1485.1L1525.6 47H1528.5L1536.1 54.6Z" fill="#0A0A0A"/>
<defs>
<filter id="filter0_d_1184_113" x="921" y="28" width="9" height="566" filterUnits="userSpaceOnUse" color-interpolation-filters="sRGB">
<feFlood flood-opacity="0" result="BackgroundImageFix"/>
<feColorMatrix in="SourceAlpha" type="matrix" values="0 0 0 0 0 0 0 0 0 0 0 0 0 0 0 0 0 0 127 0" result="hardAlpha"/>
<feOffset/>
<feGaussianBlur stdDeviation="1.5"/>
<feComposite in2="hardAlpha" operator="out"/>
<feColorMatrix type="matrix" values="0 0 0 0 1 0 0 0 0 0.882353 0 0 0 0 0.411765 0 0 0 1 0"/>
<feBlend mode="normal" in2="BackgroundImageFix" result="effect1_dropShadow_1184_113"/>
<feBlend mode="normal" in="SourceGraphic" in2="effect1_dropShadow_1184_113" result="shape"/>
</filter>
<filter id="filter1_d_1184_113" x="365" y="28" width="9" height="566" filterUnits="userSpaceOnUse" color-interpolation-filters="sRGB">
<feFlood flood-opacity="0" result="BackgroundImageFix"/>
<feColorMatrix in="SourceAlpha" type="matrix" values="0 0 0 0 0 0 0 0 0 0 0 0 0 0 0 0 0 0 127 0" result="hardAlpha"/>
<feOffset/>
<feGaussianBlur stdDeviation="1.5"/>
<feComposite in2="hardAlpha" operator="out"/>
<feColorMatrix type="matrix" values="0 0 0 0 1 0 0 0 0 0.882353 0 0 0 0 0.411765 0 0 0 1 0"/>
<feBlend mode="normal" in2="BackgroundImageFix" result="effect1_dropShadow_1184_113"/>
<feBlend mode="normal" in="SourceGraphic" in2="effect1_dropShadow_1184_113" result="shape"/>
</filter>
<filter id="filter2_d_1184_113" x="88" y="28" width="9" height="566" filterUnits="userSpaceOnUse" color-interpolation-filters="sRGB">
<feFlood flood-opacity="0" result="BackgroundImageFix"/>
<feColorMatrix in="SourceAlpha" type="matrix" values="0 0 0 0 0 0 0 0 0 0 0 0 0 0 0 0 0 0 127 0" result="hardAlpha"/>
<feOffset/>
<feGaussianBlur stdDeviation="1.5"/>
<feComposite in2="hardAlpha" operator="out"/>
<feColorMatrix type="matrix" values="0 0 0 0 1 0 0 0 0 0.882353 0 0 0 0 0.411765 0 0 0 1 0"/>
<feBlend mode="normal" in2="BackgroundImageFix" result="effect1_dropShadow_1184_113"/>
<feBlend mode="normal" in="SourceGraphic" in2="effect1_dropShadow_1184_113" result="shape"/>
</filter>
<filter id="filter3_d_1184_113" x="1475" y="23" width="9" height="566" filterUnits="userSpaceOnUse" color-interpolation-filters="sRGB">
<feFlood flood-opacity="0" result="BackgroundImageFix"/>
<feColorMatrix in="SourceAlpha" type="matrix" values="0 0 0 0 0 0 0 0 0 0 0 0 0 0 0 0 0 0 127 0" result="hardAlpha"/>
<feOffset/>
<feGaussianBlur stdDeviation="1.5"/>
<feComposite in2="hardAlpha" operator="out"/>
<feColorMatrix type="matrix" values="0 0 0 0 1 0 0 0 0 0.882353 0 0 0 0 0.411765 0 0 0 1 0"/>
<feBlend mode="normal" in2="BackgroundImageFix" result="effect1_dropShadow_1184_113"/>
<feBlend mode="normal" in="SourceGraphic" in2="effect1_dropShadow_1184_113" result="shape"/>
</filter>
<filter id="filter4_d_1184_113" x="1198" y="28" width="9" height="566" filterUnits="userSpaceOnUse" color-interpolation-filters="sRGB">
<feFlood flood-opacity="0" result="BackgroundImageFix"/>
<feColorMatrix in="SourceAlpha" type="matrix" values="0 0 0 0 0 0 0 0 0 0 0 0 0 0 0 0 0 0 127 0" result="hardAlpha"/>
<feOffset/>
<feGaussianBlur stdDeviation="1.5"/>
<feComposite in2="hardAlpha" operator="out"/>
<feColorMatrix type="matrix" values="0 0 0 0 1 0 0 0 0 0.882353 0 0 0 0 0.411765 0 0 0 1 0"/>
<feBlend mode="normal" in2="BackgroundImageFix" result="effect1_dropShadow_1184_113"/>
<feBlend mode="normal" in="SourceGraphic" in2="effect1_dropShadow_1184_113" result="shape"/>
</filter>
<filter id="filter5_d_1184_113" x="643" y="28" width="9" height="566" filterUnits="userSpaceOnUse" color-interpolation-filters="sRGB">
<feFlood flood-opacity="0" result="BackgroundImageFix"/>
<feColorMatrix in="SourceAlpha" type="matrix" values="0 0 0 0 0 0 0 0 0 0 0 0 0 0 0 0 0 0 127 0" result="hardAlpha"/>
<feOffset/>
<feGaussianBlur stdDeviation="1.5"/>
<feComposite in2="hardAlpha" operator="out"/>
<feColorMatrix type="matrix" values="0 0 0 0 1 0 0 0 0 0.882353 0 0 0 0 0.411765 0 0 0 1 0"/>
<feBlend mode="normal" in2="BackgroundImageFix" result="effect1_dropShadow_1184_113"/>
<feBlend mode="normal" in="SourceGraphic" in2="effect1_dropShadow_1184_113" result="shape"/>
</filter>
<filter id="filter6_d_1184_113" x="11" y="279" width="1550.25" height="64.9999" filterUnits="userSpaceOnUse" color-interpolation-filters="sRGB">
<feFlood flood-opacity="0" result="BackgroundImageFix"/>
<feColorMatrix in="SourceAlpha" type="matrix" values="0 0 0 0 0 0 0 0 0 0 0 0 0 0 0 0 0 0 127 0" result="hardAlpha"/>
<feOffset/>
<feGaussianBlur stdDeviation="1.5"/>
<feComposite in2="hardAlpha" operator="out"/>
<feColorMatrix type="matrix" values="0 0 0 0 1 0 0 0 0 0.882353 0 0 0 0 0.411765 0 0 0 1 0"/>
<feBlend mode="normal" in2="BackgroundImageFix" result="effect1_dropShadow_1184_113"/>
<feBlend mode="normal" in="SourceGraphic" in2="effect1_dropShadow_1184_113" result="shape"/>
</filter>
<linearGradient id="paint0_linear_1184_113" x1="925.5" y1="31" x2="925.5" y2="591" gradientUnits="userSpaceOnUse">
<stop stop-color="#CA9328"/>
<stop offset="0.494792" stop-color="#FFE169"/>
<stop offset="1" stop-color="#CA9328"/>
</linearGradient>
<linearGradient id="paint1_linear_1184_113" x1="369.5" y1="31" x2="369.5" y2="591" gradientUnits="userSpaceOnUse">
<stop stop-color="#CA9328"/>
<stop offset="0.494792" stop-color="#FFE169"/>
<stop offset="1" stop-color="#CA9328"/>
</linearGradient>
<linearGradient id="paint2_linear_1184_113" x1="92.5" y1="31" x2="92.5" y2="591" gradientUnits="userSpaceOnUse">
<stop stop-color="#CA9328"/>
<stop offset="0.494792" stop-color="#FFE169"/>
<stop offset="1" stop-color="#CA9328"/>
</linearGradient>
<linearGradient id="paint3_linear_1184_113" x1="1479.5" y1="26" x2="1479.5" y2="586" gradientUnits="userSpaceOnUse">
<stop stop-color="#CA9328"/>
<stop offset="0.494792" stop-color="#FFE169"/>
<stop offset="1" stop-color="#CA9328"/>
</linearGradient>
<linearGradient id="paint4_linear_1184_113" x1="1202.5" y1="31" x2="1202.5" y2="591" gradientUnits="userSpaceOnUse">
<stop stop-color="#CA9328"/>
<stop offset="0.494792" stop-color="#FFE169"/>
<stop offset="1" stop-color="#CA9328"/>
</linearGradient>
<linearGradient id="paint5_linear_1184_113" x1="647.5" y1="31" x2="647.5" y2="591" gradientUnits="userSpaceOnUse">
<stop stop-color="#CA9328"/>
<stop offset="0.494792" stop-color="#FFE169"/>
<stop offset="1" stop-color="#CA9328"/>
</linearGradient>
<linearGradient id="paint6_linear_1184_113" x1="32.8899" y1="291" x2="1549.07" y2="332.461" gradientUnits="userSpaceOnUse">
<stop stop-color="#CA9328"/>
<stop offset="0.53125" stop-color="#FFE169"/>
<stop offset="1" stop-color="#CA9328"/>
</linearGradient>
<linearGradient id="paint7_linear_1184_113" x1="-20.88" y1="1.52001" x2="1596.47" y2="621.47" gradientUnits="userSpaceOnUse">
<stop stop-color="#CA9328"/>
<stop offset="0.49" stop-color="#FFE169"/>
<stop offset="1" stop-color="#CA9328"/>
</linearGradient>
</defs>
</svg>
