<svg xmlns="http://www.w3.org/2000/svg" xmlns:xlink="http://www.w3.org/1999/xlink" viewBox="0 0 1173 110.2" class="LoxotronCasinoTextSvg">
  <defs>
    <style>
      .a{fill:url(#a);}.b{fill:url(#b);}.c{fill:url(#c);}.d{fill:url(#d);}.e{fill:url(#e);}.f{fill:url(#f);}.g{fill:url(#g);}.h{fill:url(#h);}.i{fill:url(#i);}.j{fill:url(#j);}.k{fill:url(#k);}.l{fill:url(#l);}.m{fill:url(#m);}.n{fill:url(#n);}
    </style>
    <linearGradient id="a" x1="-13.82" y1="10.04" x2="45.29" y2="119.74" gradientUnits="userSpaceOnUse">
      <stop offset="0" stop-color="#ca9328"/>
      <stop offset="0.49" stop-color="#ffe169"/>
      <stop offset="1" stop-color="#ca9328"/>
    </linearGradient>
    <linearGradient id="b" x1="59.12" y1="6.61" x2="146.53" y2="117.77" xlink:href="#a"/>
    <linearGradient id="c" x1="141.6" y1="1.57" x2="233.06" y2="114.24" xlink:href="#a"/>
    <linearGradient id="d" x1="245.58" y1="8" x2="308.74" y2="110.07" xlink:href="#a"/>
    <linearGradient id="e" x1="333.3" y1="-3.25" x2="410.1" y2="106.9" xlink:href="#a"/>
    <linearGradient id="f" x1="396.67" y1="7.17" x2="473.98" y2="117.82" xlink:href="#a"/>
    <linearGradient id="g" x1="492.38" y1="3.59" x2="583.84" y2="122.83" xlink:href="#a"/>
    <linearGradient id="h" x1="586.95" y1="2.24" x2="674.87" y2="122.49" xlink:href="#a"/>
    <linearGradient id="i" x1="720.82" y1="5.24" x2="801.67" y2="119.43" xlink:href="#a"/>
    <linearGradient id="j" x1="785.5" y1="21.35" x2="867.35" y2="129.48" xlink:href="#a"/>
    <linearGradient id="k" x1="874.01" y1="5.07" x2="961.42" y2="112.69" xlink:href="#a"/>
    <linearGradient id="l" x1="935.06" y1="-1.09" x2="1003.27" y2="117.14" xlink:href="#a"/>
    <linearGradient id="m" x1="986.47" y1="-0.7" x2="1065.79" y2="112.98" xlink:href="#a"/>
    <linearGradient id="n" x1="1079.79" y1="7.85" x2="1166.19" y2="115.98" xlink:href="#a"/>
  </defs>
  <path class="a" d="M50.3,109H0V6.5H23.8V87H50.3ZM5,104H45.3V92H18.8V11.5H5Z"/>
  <path class="b" d="M99.5,109.8c-29.4,0-53.4-23.3-53.4-52.1S70.1,5.8,99.5,5.8a53.8,53.8,0,0,1,37.3,15.1,50.7,50.7,0,0,1,15.9,36.8C152.7,86.5,128.8,109.8,99.5,109.8Zm0-99c-26.7,0-48.4,21-48.4,46.9s21.7,47.1,48.4,47.1,48.2-21.1,48.2-47.1S125.6,10.8,99.5,10.8Zm0,82.9c-19.2,0-36-16.8-36-36s16.8-35.8,36-35.8,35.8,16.7,35.8,35.8S118.6,93.7,99.5,93.7Zm0-66.8c-16.2,0-31,14.7-31,30.8s14.8,31,31,31,30.8-14.8,30.8-31S115.6,26.9,99.5,26.9Z"/>
  <path class="c" d="M231.2,109h-28l-16-27.4-16,27.4H143.3l30.4-50.7L143.3,6.5h26.6l17.3,28.9L204.5,6.5h26.6L200.7,58.3Zm-25.1-5h16.2L194.9,58.3l27.5-46.8H207.3L187.1,45.1l-20-33.6H152l27.5,46.8L152.1,104h16.2l18.8-32.3Z"/>
  <path class="d" d="M276.5,109.8c-29.4,0-53.4-23.3-53.4-52.1s24-51.9,53.4-51.9a53.8,53.8,0,0,1,37.3,15.1,50.7,50.7,0,0,1,15.9,36.8C329.7,86.5,305.8,109.8,276.5,109.8Zm0-99c-26.7,0-48.4,21-48.4,46.9s21.7,47.1,48.4,47.1,48.2-21.1,48.2-47.1S302.6,10.8,276.5,10.8Zm0,82.9c-19.2,0-36-16.8-36-36s16.8-35.8,36-35.8,35.8,16.7,35.8,35.8S295.6,93.7,276.5,93.7Zm0-66.8c-16.2,0-31,14.7-31,30.8s14.8,31,31,31,30.8-14.8,30.8-31S292.6,26.9,276.5,26.9Z"/>
  <path class="e" d="M374.1,109H350.4V52.5c0-11.1-5.4-18.6-16.1-22.3a26.3,26.3,0,0,0-8.2-1.6h-.2l-4.3-.3V6.5h79.6V28.6H367.4c4.6,6.9,6.7,14.5,6.7,23.9Zm-18.7-5h13.7V52.5c0-10.2-2.6-17.6-8.7-24.8l-3.5-4.1h39.3V11.5H326.6V23.6a32.6,32.6,0,0,1,9.4,1.9c16,5.5,19.4,17.7,19.4,27Z"/>
  <path class="f" d="M430.2,109H406.1l.3-102.5h27.5c27.5,0,44.6,21.6,44.6,41.6a40.3,40.3,0,0,1-8.9,25.1,115.7,115.7,0,0,1,7.9,31.1l.4,4.4h-23l-.7-3.5A117.6,117.6,0,0,0,449.9,87a41.3,41.3,0,0,1-9.5,2.3c-3.1.3-6.3.4-9.9.4Zm-19.1-5h14.2l.3-19.3h2.5a107.7,107.7,0,0,0,11.8-.4,34.1,34.1,0,0,0,10.5-2.9l2.5-1.1.9,2.6a118.9,118.9,0,0,1,5.2,20.8h13.4a109.4,109.4,0,0,0-8-30l-.6-1.4,1-1.2a35.1,35.1,0,0,0,8.7-23c0-14.7-12.6-36.6-39.6-36.6H411.4Zm17.8-29.5h-3.3v-53l2.7.3h3.5c19.6,0,28.5,13.6,28.5,26.2,0,10.5-4.7,18.7-13.2,23C441.3,74.1,434.9,74.5,428.9,74.5Zm1.7-47.6V69.5c4.8-.1,9.9-.6,14.2-2.9,8.7-4.4,10.5-12.4,10.5-18.5,0-10.2-7.4-21.2-23.5-21.2Z"/>
  <path class="g" d="M534.1,109.8c-29.5,0-53.4-23.3-53.4-52.1S504.6,5.8,534.1,5.8a53.8,53.8,0,0,1,37.3,15.1,51.1,51.1,0,0,1,15.9,36.8C587.3,86.5,563.4,109.8,534.1,109.8Zm0-99c-26.7,0-48.4,21-48.4,46.9s21.7,47.1,48.4,47.1,48.2-21.1,48.2-47.1S560.2,10.8,534.1,10.8Zm0,82.9c-19.2,0-36-16.8-36-36s16.8-35.8,36-35.8,35.8,16.7,35.8,35.8S553.2,93.7,534.1,93.7Zm0-66.8c-16.3,0-31,14.7-31,30.8s14.7,31,31,31,30.8-14.8,30.8-31S550.2,26.9,534.1,26.9Z"/>
  <path class="h" d="M664.8,109.4H644.5l-31.7-55v54.9H590.7V6.9h20.4l31.6,52.8V6.9h22.1Zm-17.5-5h12.5V11.9H647.7V77.7L608.2,11.9H595.7v92.4h12.1V35.7Z"/>
  <path class="i" d="M760.4,109.7c-29.4,0-53.2-23.3-53.2-52S731,5.9,760.4,5.9a57.1,57.1,0,0,1,24.3,5.5l4.3,2.2L776.3,30.8l-3.6-1.6a29.3,29.3,0,0,0-11.6-2.3c-16.5,0-30.9,14.4-30.9,30.8s14.4,30.9,30.9,30.9a26.1,26.1,0,0,0,11.6-2.3l3.8-1.9,12.6,17.8-4.5,1.9A57.8,57.8,0,0,1,760.4,109.7Zm0-98.8c-26.6,0-48.2,21-48.2,46.8s21.6,47,48.2,47a50.5,50.5,0,0,0,21-4.7l-6.5-9.2h-.1a31.3,31.3,0,0,1-13.7,2.8c-19.1,0-35.9-16.8-35.9-35.9S742,21.9,761.1,21.9a34.4,34.4,0,0,1,13.6,2.7h0l6.8-9.1A51.4,51.4,0,0,0,760.4,10.9Zm-1.4,63L742.5,57.7,759,41.6l16.2,16.1Zm-9.4-16.2,9.4,9.2,9.1-9.2L759,48.6Z"/>
  <path class="j" d="M886.4,109H861.5l-4.2-8.9a47.9,47.9,0,0,1-42.8.1l-4,8.8H785.4l2.6-5.6C802.9,71.2,817.6,39.5,831.6,9l4.2-9L840,9c11.9,24.8,23.5,50.1,34.7,74.6l9.1,19.8Zm-21.7-5h13.9l-8.4-18.3c-11.1-24.3-22.6-49.3-34.4-73.9-13.7,29.8-28,60.8-42.6,92.2h14.1l4.9-10.7,2.3,1.3a44.9,44.9,0,0,0,21.3,5.6,42.8,42.8,0,0,0,21.4-5.7l2.4-1.4ZM835.8,88.6c-4.5,0-10.1-1.7-16.5-4.9l-2.2-1.1,18.7-40.5,19,40.5-2.2,1.1C846.2,86.9,840.5,88.6,835.8,88.6Zm-12.1-8.3c4.8,2.2,8.9,3.3,12.1,3.3s7.6-1.2,12.4-3.3L835.8,53.9Z"/>
  <path class="k" d="M915.9,110.2a46.1,46.1,0,0,1-33.2-13.7l-1.2-1.2V93.7a4.8,4.8,0,0,1,.7-2.4h0l6.4-10.1h.1l3.2-4.4,4,4c5.6,5.5,11.1,8.8,21.1,8.8l5-.7c6.9-1.7,8.3-4.4,8.3-7.9v-.2c0-4.5-3-8.3-8.9-11.6a16.9,16.9,0,0,0-2.7-1.2l-1.8-.8-10.4-4.9c-14.8-7-22.3-16-22.3-26.6V32.7c0-16.5,17.2-27.6,33.3-27.6h2A41.9,41.9,0,0,1,949.3,17l1.1,1.2v1.6a10.3,10.3,0,0,1-.1,1.3v.5L941,36l-4.3-4.3c-.9-.9-5-3.1-8.1-4.5a32.5,32.5,0,0,0-10-2.1c-4.1,0-6.8,1.2-8.8,3.9a15.8,15.8,0,0,1-1.4,2.3,18.1,18.1,0,0,0-.3,2.3c0,5.2,8,9,12.8,10.8,14,5.8,33.2,13.8,33.2,34.6v1.8c0,13.3-8.5,23.2-23.9,27.8a28.7,28.7,0,0,1-7.4,1.4C920.5,110.2,918.3,110.2,915.9,110.2ZM886.7,93.4c8.4,8,17.9,11.8,29.2,11.8,2.2,0,4.4,0,6.3-.2h.2a23.8,23.8,0,0,0,6.3-1.2c13.3-3.9,20.4-11.9,20.4-23V79c0-17.5-16.7-24.4-30-29.9-10.5-3.9-16-9.3-16-15.5a18.4,18.4,0,0,1,.6-4l.2-.7.5-.4c.1-.2.7-1.2,1-1.9l.2-.3c3.1-4.3,7.2-6.2,13-6.2a36.8,36.8,0,0,1,12,2.5c.1.1,7.2,3.3,9.5,5.5l5.1-8a36.9,36.9,0,0,0-25.7-10h-2c-13.7,0-28.3,9.1-28.3,22.6v2.9c0,8.7,6.3,15.9,19.4,22.1,3.4,1.5,7,3.2,10.4,4.9l1.6.6,3.3,1.5c9.4,5.3,11.4,11.6,11.4,16v.2c0,6.6-4,10.8-12.2,12.7a38.9,38.9,0,0,1-6.1.9c-11.6,0-18.2-4-24.5-10.1C890.5,87.4,888.6,90.4,886.7,93.4Zm-.5.9h-.1c0-.1,0-.1.1-.1Z"/>
  <path class="l" d="M980.9,109H957.1V6.5h23.8Zm-18.8-5h13.8V11.5H962.1Z"/>
  <path class="m" d="M1064.5,109.4h-20.3l-31.7-55v54.9h-22V6.9h20.3l31.6,52.8V6.9h22.1Zm-17.4-5h12.4V11.9h-12.1V77.7l-39.5-65.8H995.5v92.4h12V35.7Z"/>
  <path class="n" d="M1119.8,109.8c-29.4,0-53.3-23.3-53.3-52.1s23.9-51.9,53.3-51.9a54,54,0,0,1,37.4,15.1A51,51,0,0,1,1173,57.7C1173,86.5,1149.1,109.8,1119.8,109.8Zm0-99c-26.7,0-48.3,21-48.3,46.9s21.6,47.1,48.3,47.1S1168,83.7,1168,57.7,1145.9,10.8,1119.8,10.8Zm0,82.9c-19.2,0-36-16.8-36-36s16.8-35.8,36-35.8,35.8,16.7,35.8,35.8S1138.9,93.7,1119.8,93.7Zm0-66.8c-16.2,0-31,14.7-31,30.8s14.8,31,31,31,30.8-14.8,30.8-31S1135.9,26.9,1119.8,26.9Z"/>
</svg>
