<svg width="84" height="84" viewBox="0 0 84 84" fill="none" xmlns="http://www.w3.org/2000/svg">
<g id="Logo">
<path id="Vector" d="M37.1743 11.6936L67.7615 42.2553L37.1743 72.817L6.61256 42.2553L37.1743 11.6936ZM37.1743 10.0596L4.97852 42.2553L37.1743 74.4511L69.37 42.2553L37.1743 10.0596Z" fill="url(#paint0_linear_140_94)"/>
<path id="Vector_2" d="M41.9994 11.4383L72.5611 42L41.9994 72.5617L11.4378 42L41.9994 11.4383ZM41.9994 9.80426L9.80371 42L41.9994 74.1958L74.1952 42L41.9994 9.80426Z" fill="url(#paint1_linear_140_94)"/>
<path id="Vector_3" d="M46.8246 11.183L77.3863 41.7447L46.8246 72.3064L16.2374 41.7447L46.8246 11.183ZM46.8246 9.54893L14.6289 41.7447L46.8246 73.9404L79.0204 41.7447L46.8246 9.54893Z" fill="url(#paint2_linear_140_94)"/>
<path id="Vector_4" d="M41.9999 23.5404L60.4594 42L41.9999 60.4596L23.5403 42L41.9999 23.5404ZM41.9999 21.9064L21.9062 42L41.9999 62.0936L62.0935 42L41.9999 21.9064Z" fill="url(#paint3_linear_140_94)"/>
<path id="Vector_5" d="M38.0678 23.5404L50.6551 36.1277L38.0678 48.7149L25.5061 36.1277L38.0678 23.5404ZM38.0678 21.9064L23.8721 36.1277L38.0678 50.3234L52.2891 36.1277L38.0678 21.9064Z" fill="url(#paint4_linear_140_94)"/>
<path id="Vector_6" d="M45.8295 24.0255L58.4168 36.6128L45.8295 49.2L33.2423 36.6128L45.8295 24.0255ZM45.8295 22.3915L31.6338 36.6128L45.8295 50.8341L60.0508 36.6128L45.8295 22.3915Z" fill="url(#paint5_linear_140_94)"/>
<path id="Vector_7" d="M38.0678 34.5191L50.6551 47.1064L38.0678 59.6936L25.5061 47.1064L38.0678 34.5191ZM38.0678 32.9106L23.8721 47.1064L38.0678 61.3276L52.2891 47.1064L38.0678 32.9106Z" fill="url(#paint6_linear_140_94)"/>
<path id="Vector_8" d="M45.8295 35.0298L58.4168 47.617L45.8295 60.1787L33.2423 47.617L45.8295 35.0298ZM45.8295 33.3957L31.6338 47.617L45.8295 61.8128L60.0508 47.617L45.8295 33.3957Z" fill="url(#paint7_linear_140_94)"/>
<path id="Vector_9" d="M42 84L0 42L42 0L84 42L42 84ZM1.63405 42L42 82.366L82.366 42L42 1.63404L1.63405 42Z" fill="url(#paint8_linear_140_94)"/>
<path id="Vector_10" d="M42.0001 10.2638L36.8682 5.13192L42.0001 0L47.132 5.13192L42.0001 10.2638ZM38.5022 5.13192L42.0001 8.62979L45.4979 5.13192L42.0001 1.63404L38.5022 5.13192Z" fill="url(#paint9_linear_140_94)"/>
<path id="Vector_11" d="M42.0001 84L36.8682 78.8681L42.0001 73.7362L47.132 78.8681L42.0001 84ZM38.5022 78.8681L42.0001 82.366L45.4979 78.8681L42.0001 75.3702L38.5022 78.8681Z" fill="url(#paint10_linear_140_94)"/>
</g>
<defs>
<linearGradient id="paint0_linear_140_94" x1="16.5981" y1="21.6664" x2="64.6313" y2="69.6996" gradientUnits="userSpaceOnUse">
<stop stop-color="#CA9328"/>
<stop offset="0.51" stop-color="#FFE169"/>
<stop offset="1" stop-color="#CA9328"/>
</linearGradient>
<linearGradient id="paint1_linear_140_94" x1="19.1331" y1="19.1311" x2="67.1663" y2="67.1642" gradientUnits="userSpaceOnUse">
<stop stop-color="#CA9328"/>
<stop offset="0.51" stop-color="#FFE169"/>
<stop offset="1" stop-color="#CA9328"/>
</linearGradient>
<linearGradient id="paint2_linear_140_94" x1="21.6681" y1="16.5957" x2="69.7013" y2="64.6289" gradientUnits="userSpaceOnUse">
<stop stop-color="#CA9328"/>
<stop offset="0.51" stop-color="#FFE169"/>
<stop offset="1" stop-color="#CA9328"/>
</linearGradient>
<linearGradient id="paint3_linear_140_94" x1="19.1335" y1="19.1311" x2="67.1667" y2="67.1642" gradientUnits="userSpaceOnUse">
<stop stop-color="#CA9328"/>
<stop offset="0.51" stop-color="#FFE169"/>
<stop offset="1" stop-color="#CA9328"/>
</linearGradient>
<linearGradient id="paint4_linear_140_94" x1="20.1138" y1="18.1506" x2="68.147" y2="66.1838" gradientUnits="userSpaceOnUse">
<stop stop-color="#CA9328"/>
<stop offset="0.51" stop-color="#FFE169"/>
<stop offset="1" stop-color="#CA9328"/>
</linearGradient>
<linearGradient id="paint5_linear_140_94" x1="23.7495" y1="14.5175" x2="71.7802" y2="62.5481" gradientUnits="userSpaceOnUse">
<stop stop-color="#CA9328"/>
<stop offset="0.51" stop-color="#FFE169"/>
<stop offset="1" stop-color="#CA9328"/>
</linearGradient>
<linearGradient id="paint6_linear_140_94" x1="14.6142" y1="23.6502" x2="62.6474" y2="71.6834" gradientUnits="userSpaceOnUse">
<stop stop-color="#CA9328"/>
<stop offset="0.51" stop-color="#FFE169"/>
<stop offset="1" stop-color="#CA9328"/>
</linearGradient>
<linearGradient id="paint7_linear_140_94" x1="18.25" y1="20.0145" x2="66.2832" y2="68.0476" gradientUnits="userSpaceOnUse">
<stop stop-color="#CA9328"/>
<stop offset="0.51" stop-color="#FFE169"/>
<stop offset="1" stop-color="#CA9328"/>
</linearGradient>
<linearGradient id="paint8_linear_140_94" x1="19.1336" y1="19.1311" x2="67.1668" y2="67.1643" gradientUnits="userSpaceOnUse">
<stop stop-color="#CA9328"/>
<stop offset="0.51" stop-color="#FFE169"/>
<stop offset="1" stop-color="#CA9328"/>
</linearGradient>
<linearGradient id="paint9_linear_140_94" x1="37.5677" y1="0.699575" x2="85.5984" y2="48.7302" gradientUnits="userSpaceOnUse">
<stop stop-color="#CA9328"/>
<stop offset="0.51" stop-color="#FFE169"/>
<stop offset="1" stop-color="#CA9328"/>
</linearGradient>
<linearGradient id="paint10_linear_140_94" x1="0.702251" y1="37.5651" x2="48.7329" y2="85.5957" gradientUnits="userSpaceOnUse">
<stop stop-color="#CA9328"/>
<stop offset="0.51" stop-color="#FFE169"/>
<stop offset="1" stop-color="#CA9328"/>
</linearGradient>
</defs>
</svg>
