<svg width="146" height="146" viewBox="0 0 146 146" fill="none" xmlns="http://www.w3.org/2000/svg">
<circle cx="73" cy="73" r="71.5" stroke="url(#paint0_linear_299_167)" stroke-width="3"/>
<path d="M120.092 61.2273H84.7737L97.9768 48.0242C91.3075 41.3549 82.4368 37.6818 73.0009 37.6818C63.5651 37.6818 54.7002 41.3549 48.0251 48.0242C41.3558 54.6934 37.6827 63.5642 37.6827 73C37.6827 82.4359 41.3558 91.3007 48.0251 97.9759C51.2975 101.266 55.19 103.873 59.4771 105.649C63.7642 107.424 68.3608 108.331 73.0009 108.318C78.0378 108.333 83.0188 107.263 87.6056 105.182C92.1925 103.101 96.2776 100.057 99.5837 96.257L108.443 104.009C102.222 111.12 94.0067 116.195 84.8639 118.575C75.7211 120.955 66.0737 120.531 57.1756 117.356C48.2775 114.181 40.54 108.403 34.9687 100.773C29.3974 93.1432 26.2499 84.0139 25.9353 74.5716C25.6207 65.1293 28.1535 55.8107 33.2045 47.8268C38.2555 39.8428 45.5912 33.5628 54.2582 29.8027C62.9253 26.0427 72.523 24.9765 81.8039 26.7427C91.0849 28.509 99.62 33.026 106.3 39.7068L120.092 25.9091V61.2273Z" fill="url(#paint1_linear_299_167)"/>
<defs>
<linearGradient id="paint0_linear_299_167" x1="3" y1="3" x2="143" y2="143" gradientUnits="userSpaceOnUse">
<stop stop-color="#CA9328"/>
<stop offset="0.526042" stop-color="#FFE169"/>
<stop offset="1" stop-color="#CA9328"/>
</linearGradient>
<linearGradient id="paint1_linear_299_167" x1="25.9092" y1="25.9091" x2="120.091" y2="120.091" gradientUnits="userSpaceOnUse">
<stop offset="0.15633" stop-color="#CA9328"/>
<stop offset="0.494792" stop-color="#FFE169"/>
<stop offset="0.792091" stop-color="#CA9328"/>
</linearGradient>
</defs>
</svg>
