<svg width="256" height="256" viewBox="0 0 256 256" fill="none" xmlns="http://www.w3.org/2000/svg">
<path d="M160.147 163.25C158.313 163.25 156.519 163.794 154.994 164.813C153.468 165.832 152.279 167.281 151.577 168.976C150.875 170.671 150.691 172.536 151.049 174.335C151.407 176.135 152.291 177.788 153.588 179.085C154.885 180.382 156.538 181.266 158.338 181.624C160.137 181.982 162.002 181.798 163.697 181.096C165.392 180.394 166.841 179.205 167.86 177.679C168.879 176.154 169.424 174.36 169.424 172.526C169.424 170.066 168.446 167.706 166.707 165.966C164.967 164.227 162.608 163.25 160.147 163.25ZM160.147 179.947C158.68 179.947 157.245 179.511 156.024 178.696C154.804 177.881 153.853 176.722 153.291 175.366C152.73 174.01 152.583 172.517 152.869 171.078C153.155 169.638 153.862 168.316 154.9 167.278C155.938 166.24 157.26 165.534 158.7 165.247C160.139 164.961 161.631 165.108 162.987 165.67C164.343 166.231 165.502 167.182 166.318 168.403C167.133 169.623 167.568 171.058 167.568 172.526C167.568 174.494 166.786 176.381 165.395 177.773C164.003 179.165 162.115 179.947 160.147 179.947Z" fill="url(#paint0_linear_1011_1494)"/>
<path d="M159.963 155.829C156.621 155.829 153.354 156.82 150.577 158.678C147.799 160.536 145.635 163.177 144.359 166.265C143.083 169.354 142.753 172.751 143.409 176.028C144.065 179.304 145.68 182.313 148.047 184.671C150.414 187.03 153.428 188.633 156.707 189.277C159.986 189.922 163.383 189.578 166.466 188.291C169.55 187.004 172.183 184.83 174.03 182.046C175.878 179.261 176.858 175.991 176.845 172.65C176.845 170.435 176.408 168.243 175.559 166.198C174.71 164.153 173.465 162.296 171.897 160.734C170.328 159.171 168.467 157.933 166.419 157.091C164.371 156.25 162.177 155.821 159.963 155.829ZM159.963 187.677C156.991 187.677 154.085 186.796 151.614 185.144C149.143 183.493 147.216 181.146 146.079 178.4C144.942 175.654 144.644 172.633 145.224 169.718C145.804 166.803 147.235 164.125 149.337 162.024C151.438 159.922 154.116 158.491 157.031 157.911C159.946 157.331 162.968 157.629 165.713 158.766C168.459 159.903 170.806 161.829 172.458 164.301C174.109 166.772 174.99 169.677 174.99 172.65C174.998 174.625 174.615 176.583 173.863 178.41C173.111 180.237 172.004 181.897 170.607 183.294C169.21 184.691 167.55 185.798 165.723 186.55C163.896 187.302 161.938 187.685 159.963 187.677Z" fill="url(#paint1_linear_1011_1494)"/>
<path d="M200.963 164.115C200.474 156.289 197.913 148.734 193.542 142.224L193.542 123.053L142.214 123.053V113.158H128.609V123.053H121.188V118.724H124.898V116.869V106.974L115.622 106.974L115.622 118.724H119.333V123.053L97.0697 123.053L97.0697 110.19C102.556 108.67 107.573 105.799 111.664 101.841L112.963 100.542C118.203 94.8388 121.306 87.4965 121.744 79.7637C121.744 79.1453 121.806 78.5269 121.806 77.9085C121.801 72.2972 120.382 66.7777 117.679 61.8598C114.977 56.9419 111.079 52.7842 106.346 49.7707C105.756 49.3546 105.136 48.9825 104.491 48.6575C99.7447 46.055 94.4417 44.6338 89.0303 44.5142H87.1751C81.9673 44.6866 76.8772 46.1076 72.3332 48.6575C71.6732 48.9544 71.0505 49.3281 70.4779 49.7707C65.7365 52.7757 61.8324 56.9315 59.1292 61.8513C56.426 66.7711 55.0116 72.295 55.0176 77.9085V79.7637C55.2951 84.759 56.7124 89.6244 59.161 93.9872C59.4702 94.6057 59.8412 95.2241 60.2123 95.8425C64.7299 102.875 71.6913 107.986 79.7541 110.19L79.7541 211.486H97.0697V168.815H113.829L115.004 169.372L126.135 174.69L126.135 210.249L193.542 210.249V191.078C201.334 179.328 201.087 166.589 200.963 164.115ZM106.346 51.9969C110.546 54.8876 113.98 58.7573 116.35 63.2717C118.72 67.7861 119.956 72.8096 119.951 77.9085H106.346V51.9969ZM119.889 79.7637C119.454 87.0179 116.526 93.899 111.602 99.2438L96.2658 83.8452C97.2023 82.653 97.8385 81.2532 98.121 79.7637H119.889ZM89.0303 46.3694C94.4728 46.4981 99.793 48.0091 104.491 50.7601V77.9085H98.3066C98.2968 75.3923 97.3347 72.9731 95.6138 71.1374C93.8928 69.3018 91.5407 68.1858 89.0303 68.0139V46.3694ZM88.4119 69.8691H89.0303C91.0483 70.0391 92.9294 70.9588 94.303 72.4469C95.6765 73.9349 96.443 75.8834 96.4513 77.9085C96.43 78.5335 96.3471 79.1549 96.2039 79.7637C95.8468 81.3751 94.9792 82.8281 93.7303 83.9071C92.4257 85.0779 90.7765 85.794 89.0303 85.9479H88.4119C87.9957 85.971 87.5785 85.9293 87.1751 85.8242C85.5916 85.5942 84.1138 84.8933 82.9338 83.8125C81.7537 82.7317 80.926 81.321 80.5581 79.7637C80.4353 79.1529 80.3732 78.5315 80.3726 77.9085C80.3645 75.9848 81.0464 74.1221 82.2945 72.6583C83.5427 71.1946 85.2743 70.2269 87.1751 69.9309L88.4119 69.8691ZM72.3332 50.7601C76.839 48.0865 81.9399 46.5775 87.1751 46.3694V68.0757C84.7866 68.3899 82.5931 69.5595 81.0011 71.3675C79.4091 73.1756 78.5267 75.4995 78.5173 77.9085H72.3332V50.7601ZM70.4779 51.9969V77.9085H56.8728C56.8676 72.8096 58.1034 67.7861 60.4738 63.2717C62.8441 58.7573 66.2777 54.8876 70.4779 51.9969ZM56.9347 79.7637H78.7028C79.0822 81.822 80.1084 83.7056 81.6321 85.1404C83.1559 86.5752 85.0977 87.4864 87.1751 87.7413V93.9872H61.2636C58.6853 89.6687 57.1993 84.7864 56.9347 79.7637ZM62.4386 95.8425H87.1751V109.448C85.302 109.361 83.4398 109.113 81.6094 108.706L79.7541 108.211C72.7192 106.228 66.5959 101.854 62.4386 95.8425ZM95.2145 209.631H81.6094L81.6094 110.623C83.4466 110.978 85.3063 111.206 87.1751 111.303H89.0303C91.1059 111.233 93.1732 111.005 95.2145 110.623L95.2145 209.631ZM95.2145 108.706C93.1797 109.139 91.1099 109.387 89.0303 109.448V87.8031C91.264 87.6324 93.3761 86.7179 95.029 85.2058L110.304 100.542C106.603 104.164 102.053 106.801 97.0697 108.211L95.2145 108.706ZM113.148 166.96H97.0697V160.776H113.148V166.96ZM113.148 158.921H97.0697L97.0697 132.947H113.148L113.148 158.921ZM113.148 131.092H97.0697V124.908L113.148 124.908V131.092ZM130.464 115.013H140.359V123.053H130.464V115.013ZM117.477 116.869L117.477 108.829H123.043V116.869H117.477ZM126.135 172.588L115.004 167.269L115.004 124.908H126.135V172.588ZM191.687 208.394L127.99 208.394L127.99 124.908L191.687 124.908L191.687 208.394ZM193.542 187.491V145.748C196.811 151.395 198.717 157.726 199.108 164.239C199.398 172.351 197.474 180.39 193.542 187.491Z" fill="url(#paint2_linear_1011_1494)"/>
<path d="M184.266 142.842V134.803H135.411V142.842H132.938V198.499H186.739V142.842H184.266ZM137.266 136.658H182.411V142.842H137.266V136.658ZM184.884 196.644H134.793V144.697H184.884V196.644Z" fill="url(#paint3_linear_1011_1494)"/>
<g filter="url(#filter0_d_1011_1494)">
<path fill-rule="evenodd" clip-rule="evenodd" d="M227.171 24.2465V5.5H231.754V21.7465V24.2465H229.254H227.171ZM231.754 24.2465H234.254H250.5V28.8286H231.754V26.7465V24.2465ZM231.754 35.9108V31.3286H250.5V35.9108H231.754ZM229.254 52.5751H229.629L229.629 203.425H229.254H205.925H203.425V205.925V229.254V229.629L52.5751 229.629V229.254L52.5751 205.925V203.425H50.0751H26.7465H26.3711L26.3711 52.5751H26.7465L50.0751 52.5751H52.5751V50.0751L52.5751 26.7465V26.3711L203.425 26.3711V26.7465V50.0751V52.5751H205.925H229.254ZM45.4929 26.7465L45.4929 42.9929V45.4929H42.9929L26.7465 45.4929V50.0751L50.0751 50.0751L50.0751 26.7465L45.4929 26.7465ZM42.9929 26.7465L42.9929 42.9929L26.7465 42.9929V38.4108H35.9108H38.4108V35.9108V26.7465H42.9929ZM35.9108 26.7465V35.9108H26.7465V31.3286H28.8286H31.3286V28.8286V26.7465L35.9108 26.7465ZM28.8286 26.7465H26.7465V28.8286H28.8286V26.7465ZM35.9108 24.2465L35.9108 5.5L31.3286 5.5L31.3286 24.2465L35.9108 24.2465ZM28.8286 24.2465L28.8286 5.5L24.2465 5.5L24.2465 21.7465L24.2465 24.2465L21.7465 24.2465L5.5 24.2465L5.5 28.8286L24.2465 28.8286V26.7465V24.2465H26.7465H28.8286ZM24.2465 31.3286V35.9108L5.5 35.9108L5.5 31.3286L24.2465 31.3286ZM231.754 224.671V220.089H250.5V224.671H231.754ZM231.754 229.254V227.171H250.5V231.754H234.254L231.754 231.754V229.254ZM231.754 231.754V234.254V250.5L227.171 250.5V231.754H229.254H231.754ZM220.089 231.754H224.671V250.5H220.089V231.754ZM229.254 205.925V210.507H213.007H210.507V213.007V229.254H205.925V205.925H229.254ZM217.589 229.254H213.007V213.007H229.254V217.589H220.089H217.589V220.089V229.254ZM220.089 220.089H229.254V224.671H227.171H224.671V227.171V229.254H220.089V220.089ZM227.171 227.171H229.254V229.254H227.171V227.171ZM5.12465 38.4108H3V35.9108V31.3286V28.8286V24.2465V21.7465L3 5.5L3 3H3H5.5L21.7465 3L24.2465 3L28.8286 3L31.3286 3L35.9108 3L38.4108 3V5.12462H38.7861L217.214 5.12465H217.589V3H220.089H224.671H227.171H231.754H234.254H250.5H253V5.5V21.7465V24.2465V28.8286V31.3286V35.9108V38.4108H250.875V38.7862L250.875 217.214V217.589H253V220.089V224.671V227.171V231.754V234.254V250.5V253H250.5L234.254 253H231.754L227.171 253H224.671H220.089H217.589V250.875H217.214L38.7861 250.875H38.4108V253H35.9108H31.3286H28.8286H24.2465H21.7465H5.5H3V250.5V234.254V231.754L3 227.171L3 224.671L3 220.089L3 217.589H5.12461V217.214L5.12465 38.7862V38.4108ZM229.254 38.4108V42.9929H213.007V26.7465H217.589V35.9108V38.4108H220.089H229.254ZM210.507 42.9929V26.7465H205.925V50.0751H229.254V45.4929H213.007H210.507V42.9929ZM220.089 35.9108V26.7465H224.671V28.8286V31.3286H227.171H229.254V35.9108H220.089ZM227.171 28.8286V26.7465H229.254V28.8286H227.171ZM224.671 24.2465H220.089V5.5H224.671V24.2465ZM234.254 21.7465V5.5H250.5V21.7465H234.254ZM28.8286 227.171V229.254H26.7465V227.171H28.8286ZM26.7465 224.671H28.8286H31.3286V227.171V229.254H35.9108V220.089H26.7465V224.671ZM26.7465 217.589H35.9108H38.4108V220.089V229.254H42.9929V213.007H26.7465V217.589ZM26.7465 210.507H42.9929H45.4929V213.007V229.254H50.0751L50.0751 205.925H26.7465V210.507ZM28.8286 250.5L28.8286 231.754H26.7465H24.2465V229.254V227.171H5.5L5.5 231.754H21.7465H24.2465L24.2465 234.254L24.2465 250.5H28.8286ZM24.2465 224.671V220.089H5.5L5.5 224.671H24.2465ZM35.9108 231.754H31.3286L31.3286 250.5H35.9108L35.9108 231.754ZM21.7465 250.5L21.7465 234.254H5.5L5.5 250.5H21.7465ZM234.254 234.254H250.5V250.5L234.254 250.5V234.254ZM5.5 21.7465L5.5 5.5L21.7465 5.5L21.7465 21.7465L5.5 21.7465ZM38.7861 7.62462L38.7861 23.8711L217.214 23.8711V7.62465L38.7861 7.62462ZM38.7861 248.375L38.7861 232.129L217.214 232.129V248.375L38.7861 248.375ZM248.375 38.7862L232.129 38.7862L232.129 217.214H248.375L248.375 38.7862ZM7.62465 38.7862L23.8711 38.7862L23.8711 217.214H7.62461L7.62465 38.7862Z" fill="url(#paint4_linear_1011_1494)"/>
</g>
<defs>
<filter id="filter0_d_1011_1494" x="0" y="0" width="256" height="256" filterUnits="userSpaceOnUse" color-interpolation-filters="sRGB">
<feFlood flood-opacity="0" result="BackgroundImageFix"/>
<feColorMatrix in="SourceAlpha" type="matrix" values="0 0 0 0 0 0 0 0 0 0 0 0 0 0 0 0 0 0 127 0" result="hardAlpha"/>
<feOffset/>
<feGaussianBlur stdDeviation="1.5"/>
<feComposite in2="hardAlpha" operator="out"/>
<feColorMatrix type="matrix" values="0 0 0 0 1 0 0 0 0 0.882353 0 0 0 0 0.411765 0 0 0 0.6 0"/>
<feBlend mode="normal" in2="BackgroundImageFix" result="effect1_dropShadow_1011_1494"/>
<feBlend mode="normal" in="SourceGraphic" in2="effect1_dropShadow_1011_1494" result="shape"/>
</filter>
<linearGradient id="paint0_linear_1011_1494" x1="55.5612" y1="79.0587" x2="185.861" y2="195.531" gradientUnits="userSpaceOnUse">
<stop stop-color="#CA9328"/>
<stop offset="0.51" stop-color="#FFE169"/>
<stop offset="1" stop-color="#CA9328"/>
</linearGradient>
<linearGradient id="paint1_linear_1011_1494" x1="55.4198" y1="79.2197" x2="185.713" y2="195.692" gradientUnits="userSpaceOnUse">
<stop stop-color="#CA9328"/>
<stop offset="0.51" stop-color="#FFE169"/>
<stop offset="1" stop-color="#CA9328"/>
</linearGradient>
<linearGradient id="paint2_linear_1011_1494" x1="47.7389" y1="87.8155" x2="178.032" y2="204.281" gradientUnits="userSpaceOnUse">
<stop stop-color="#CA9328"/>
<stop offset="0.51" stop-color="#FFE169"/>
<stop offset="1" stop-color="#CA9328"/>
</linearGradient>
<linearGradient id="paint3_linear_1011_1494" x1="57.7941" y1="76.5604" x2="188.094" y2="193.032" gradientUnits="userSpaceOnUse">
<stop stop-color="#CA9328"/>
<stop offset="0.51" stop-color="#FFE169"/>
<stop offset="1" stop-color="#CA9328"/>
</linearGradient>
<linearGradient id="paint4_linear_1011_1494" x1="-29" y1="-28" x2="286.5" y2="278.5" gradientUnits="userSpaceOnUse">
<stop stop-color="#CA9328"/>
<stop offset="0.46875" stop-color="#FFE169"/>
<stop offset="1" stop-color="#CA9328"/>
</linearGradient>
</defs>
</svg>
