<svg width="256" height="256" viewBox="0 0 256 256" fill="none" xmlns="http://www.w3.org/2000/svg">
<path d="M199.473 171.845C199.364 171.234 199.219 170.629 199.037 170.035C198.725 168.6 198.288 167.227 197.851 165.729C197.415 164.231 196.853 162.483 196.354 160.549C196.277 160.349 196.235 160.138 196.229 159.924C196.04 159.375 195.894 158.812 195.793 158.239C195.294 156.429 194.732 154.37 194.171 152.123C193.235 148.628 192.237 144.758 191.426 141.45L190.865 139.141C190.491 137.702 190.2 136.243 189.991 134.772C191.177 131.589 194.171 119.48 194.857 115.236C194.919 114.674 194.982 114.238 194.982 113.988V113.613L194.732 113.114C192.674 109.369 185.438 106.998 173.586 106.186C170.716 105.999 158.427 105.874 155.308 109.244L155.121 109.494C154.873 109.783 154.688 110.122 154.581 110.488C154.473 110.854 154.445 111.238 154.497 111.616C154.517 111.787 154.559 111.955 154.622 112.115C155.121 114.487 157.117 121.103 159.675 129.279C163.043 140.451 168.034 156.679 168.845 161.672C167.847 160.736 166.1 158.551 163.043 153.558C159.987 148.565 156.806 142.823 154.934 139.328L153.749 137.268C153.687 137.206 153.687 137.081 153.624 137.019C154.437 136.308 155.013 135.366 155.277 134.319C155.54 133.271 155.478 132.169 155.098 131.158C154.718 130.147 154.039 129.276 153.152 128.661C152.264 128.047 151.21 127.718 150.131 127.719C149.515 127.726 148.905 127.832 148.322 128.031L145.702 123.724C146.459 122.99 146.979 122.046 147.197 121.014C147.415 119.981 147.321 118.908 146.925 117.929C146.53 116.951 145.853 116.113 144.979 115.522C144.106 114.931 143.076 114.614 142.022 114.612C141.47 114.599 140.921 114.684 140.4 114.862L137.967 110.867C138.549 110.363 139.016 109.74 139.339 109.04C139.662 108.341 139.832 107.581 139.838 106.81C139.838 105.403 139.28 104.054 138.285 103.059C137.291 102.064 135.942 101.505 134.536 101.505C133.873 101.497 133.215 101.624 132.602 101.88L129.982 97.6355C130.529 97.1361 130.966 96.5289 131.267 95.8522C131.567 95.1755 131.725 94.4439 131.729 93.7034C131.729 92.2964 131.17 90.947 130.176 89.9521C129.182 88.9572 127.833 88.3983 126.427 88.3983C125.811 88.4056 125.2 88.5109 124.618 88.7103L122.06 84.4038C123.048 83.3812 123.606 82.0186 123.62 80.5965C123.62 79.1895 123.061 77.8401 122.067 76.8452C121.072 75.8503 119.724 75.2914 118.317 75.2914C117.766 75.2783 117.217 75.3629 116.695 75.541L107.588 60.4369L107.276 60L67.1036 60L56 68.7379H100.539L159.425 180.022L160.424 181.832L160.923 182.83L161.359 183.704L161.796 184.515C162.794 186.513 165.352 191.131 168.72 193.441L169.968 194.127L170.404 194.314C173.007 195.428 175.808 196.002 178.638 196C181.625 196.019 184.574 195.335 187.247 194.002L188.307 193.441L188.869 193.066C193.173 190.382 199.66 185.951 199.972 178.336C200.072 176.161 199.904 173.981 199.473 171.845ZM192.362 152.622C193.11 155.431 193.797 158.114 194.296 160.174L183.878 173.78L179.512 156.991L189.929 143.385L192.362 152.622ZM188.182 134.21V134.584C188.182 135.521 188.619 137.768 189.43 141.013L178.95 154.682L169.531 118.669L172.525 118.981L177.266 119.168C184.689 119.168 189.68 117.733 192.799 116.297C191.8 121.165 189.181 131.651 188.182 134.21ZM156.618 110.555C158.739 108.246 168.533 107.747 173.399 108.059C188.557 109.12 192.175 112.428 193.048 114.05C189.867 115.735 183.504 117.92 172.588 117.109L168.97 116.734L166.973 116.422C160.798 115.236 157.866 113.239 156.306 111.367C156.276 111.216 156.289 111.059 156.345 110.916C156.4 110.772 156.495 110.647 156.618 110.555ZM147.636 130.652C148.056 130.168 148.628 129.838 149.258 129.716L150.068 129.591C150.742 129.571 151.406 129.753 151.975 130.113C152.545 130.474 152.992 130.998 153.261 131.616C153.53 132.235 153.607 132.919 153.483 133.582C153.358 134.245 153.038 134.855 152.564 135.333C152.165 135.826 151.618 136.176 151.004 136.332L150.068 136.457C149.159 136.457 148.286 136.095 147.643 135.451C146.999 134.808 146.638 133.935 146.638 133.024C146.63 132.581 146.715 132.141 146.886 131.733C147.058 131.324 147.314 130.956 147.636 130.652ZM139.651 117.358C140.13 116.942 140.712 116.662 141.335 116.547H141.959C142.869 116.547 143.742 116.909 144.385 117.552C145.029 118.196 145.39 119.069 145.39 119.98C145.413 120.755 145.146 121.512 144.641 122.102C144.256 122.608 143.738 122.997 143.144 123.225C142.762 123.353 142.362 123.416 141.959 123.412C141.262 123.417 140.581 123.209 140.005 122.816C139.43 122.423 138.987 121.865 138.737 121.214C138.486 120.564 138.439 119.852 138.603 119.175C138.766 118.497 139.132 117.885 139.651 117.421V117.358ZM131.916 104.501C132.367 104.04 132.924 103.697 133.538 103.502L134.474 103.378C135.384 103.378 136.256 103.739 136.9 104.383C137.543 105.027 137.904 105.9 137.904 106.81C137.905 107.252 137.817 107.69 137.645 108.097C137.474 108.505 137.223 108.873 136.906 109.182C136.491 109.642 135.948 109.968 135.347 110.118L134.474 110.243C133.564 110.243 132.691 109.881 132.048 109.238C131.404 108.594 131.043 107.721 131.043 106.81C131.037 105.959 131.349 105.136 131.916 104.501ZM123.931 91.2693C124.386 90.8269 124.943 90.5051 125.553 90.3331H126.364C127.274 90.3331 128.147 90.6947 128.79 91.3385C129.434 91.9823 129.795 92.8554 129.795 93.7658C129.803 94.5992 129.49 95.4038 128.922 96.0127C128.509 96.5028 127.97 96.8698 127.362 97.0738L126.364 97.1986C125.684 97.2013 125.018 97.0015 124.451 96.6244C123.884 96.2474 123.442 95.7103 123.182 95.0814C122.921 94.4524 122.853 93.7601 122.986 93.0924C123.12 92.4247 123.449 91.8118 123.931 91.3317V91.2693ZM115.947 78.0376C116.426 77.6217 117.007 77.3415 117.631 77.2262H118.255C119.165 77.2262 120.037 77.5879 120.681 78.2316C121.324 78.8754 121.686 79.7485 121.686 80.659C121.697 81.433 121.432 82.1856 120.937 82.781C120.552 83.2871 120.034 83.676 119.44 83.9045C119.058 84.0324 118.658 84.0957 118.255 84.0917C117.558 84.096 116.877 83.888 116.301 83.4954C115.725 83.1027 115.283 82.544 115.032 81.8935C114.782 81.2431 114.735 80.5317 114.898 79.8541C115.062 79.1765 115.427 78.5646 115.947 78.1V78.0376ZM61.3647 66.8655L67.7274 61.8724H77.0219L72.0316 66.8655H61.3647ZM161.671 180.209L160.673 178.336L101.911 67.3648L101.662 66.8655H74.6515L79.6419 61.8724H106.153C107.151 63.4328 110.457 68.9876 114.949 76.4148C114.332 76.9242 113.833 77.5624 113.488 78.2847C113.144 79.0071 112.961 79.7961 112.953 80.5965C112.941 81.4868 113.156 82.3654 113.578 83.1495C113.999 83.9336 114.613 84.5974 115.362 85.0782C116.111 85.5591 116.97 85.8411 117.858 85.8979C118.746 85.9546 119.634 85.7841 120.438 85.4024L122.933 89.6465C122.101 90.3483 121.505 91.2893 121.225 92.3418C120.946 93.3943 120.997 94.5073 121.372 95.5298C121.747 96.5522 122.427 97.4345 123.32 98.0569C124.213 98.6792 125.276 99.0115 126.364 99.0086C127.047 99.0106 127.724 98.8835 128.36 98.6341C129.234 100.007 130.107 101.443 130.918 102.878C130.124 103.597 129.567 104.54 129.319 105.582C129.071 106.624 129.145 107.717 129.529 108.717C129.914 109.717 130.593 110.576 131.475 111.183C132.358 111.79 133.403 112.115 134.474 112.115C135.089 112.108 135.7 112.003 136.283 111.803L138.715 115.735C138.08 116.233 137.565 116.867 137.209 117.591C136.852 118.315 136.664 119.11 136.657 119.917C136.657 121.324 137.216 122.674 138.21 123.669C139.204 124.663 140.553 125.222 141.959 125.222C142.687 125.21 143.406 125.062 144.08 124.785L146.638 128.967C146.056 129.472 145.588 130.095 145.266 130.794C144.943 131.494 144.773 132.254 144.766 133.024C144.766 134.431 145.325 135.781 146.319 136.775C147.314 137.77 148.662 138.329 150.068 138.329C150.712 138.338 151.35 138.21 151.94 137.955L152.065 138.142L153.187 140.264C162.794 157.74 167.285 164.231 169.718 164.231H170.28L170.529 163.732C171.34 162.047 168.533 152.06 161.359 128.78C159.675 123.225 158.053 117.92 157.117 114.612C159.238 116.11 162.42 117.545 167.472 118.357L177.453 156.554L178.015 158.863L182.381 175.59L162.732 182.269L161.671 180.209ZM171.589 192.754L170.716 192.38L169.905 191.943C166.973 190.07 164.603 185.889 163.605 183.954L180.385 178.274L182.88 177.463L183.005 177.9L186.748 192.13C182.506 194.502 176.517 194.751 171.589 192.754ZM198.101 178.212C197.851 184.266 193.298 188.011 188.37 191.131L184.689 176.839L184.44 176.027L185.625 174.529L194.919 162.421C195.294 163.856 195.668 165.105 196.042 166.291C196.417 167.476 196.916 169.224 197.29 170.597L197.664 172.47C198.039 174.359 198.185 176.287 198.101 178.212Z" fill="url(#paint0_linear_1011_1467)"/>
<g filter="url(#filter0_d_1011_1467)">
<path fill-rule="evenodd" clip-rule="evenodd" d="M227.171 24.2465V5.5H231.754V21.7465V24.2465H229.254H227.171ZM231.754 24.2465H234.254H250.5V28.8286H231.754V26.7465V24.2465ZM231.754 35.9108V31.3286H250.5V35.9108H231.754ZM229.254 52.5751H229.629L229.629 203.425H229.254H205.925H203.425V205.925V229.254V229.629L52.5751 229.629V229.254L52.5751 205.925V203.425H50.0751H26.7465H26.3711L26.3711 52.5751H26.7465L50.0751 52.5751H52.5751V50.0751L52.5751 26.7465V26.3711L203.425 26.3711V26.7465V50.0751V52.5751H205.925H229.254ZM45.4929 26.7465L45.4929 42.9929V45.4929H42.9929L26.7465 45.4929V50.0751L50.0751 50.0751L50.0751 26.7465L45.4929 26.7465ZM42.9929 26.7465L42.9929 42.9929L26.7465 42.9929V38.4108H35.9108H38.4108V35.9108V26.7465H42.9929ZM35.9108 26.7465V35.9108H26.7465V31.3286H28.8286H31.3286V28.8286V26.7465L35.9108 26.7465ZM28.8286 26.7465H26.7465V28.8286H28.8286V26.7465ZM35.9108 24.2465L35.9108 5.5L31.3286 5.5L31.3286 24.2465L35.9108 24.2465ZM28.8286 24.2465L28.8286 5.5L24.2465 5.5L24.2465 21.7465L24.2465 24.2465L21.7465 24.2465L5.5 24.2465L5.5 28.8286L24.2465 28.8286V26.7465V24.2465H26.7465H28.8286ZM24.2465 31.3286V35.9108L5.5 35.9108L5.5 31.3286L24.2465 31.3286ZM231.754 224.671V220.089H250.5V224.671H231.754ZM231.754 229.254V227.171H250.5V231.754H234.254L231.754 231.754V229.254ZM231.754 231.754V234.254V250.5L227.171 250.5V231.754H229.254H231.754ZM220.089 231.754H224.671V250.5H220.089V231.754ZM229.254 205.925V210.507H213.007H210.507V213.007V229.254H205.925V205.925H229.254ZM217.589 229.254H213.007V213.007H229.254V217.589H220.089H217.589V220.089V229.254ZM220.089 220.089H229.254V224.671H227.171H224.671V227.171V229.254H220.089V220.089ZM227.171 227.171H229.254V229.254H227.171V227.171ZM5.12465 38.4108H3V35.9108V31.3286V28.8286V24.2465V21.7465L3 5.5L3 3H3H5.5L21.7465 3L24.2465 3L28.8286 3L31.3286 3L35.9108 3L38.4108 3V5.12462H38.7861L217.214 5.12465H217.589V3H220.089H224.671H227.171H231.754H234.254H250.5H253V5.5V21.7465V24.2465V28.8286V31.3286V35.9108V38.4108H250.875V38.7862L250.875 217.214V217.589H253V220.089V224.671V227.171V231.754V234.254V250.5V253H250.5L234.254 253H231.754L227.171 253H224.671H220.089H217.589V250.875H217.214L38.7861 250.875H38.4108V253H35.9108H31.3286H28.8286H24.2465H21.7465H5.5H3V250.5V234.254V231.754L3 227.171L3 224.671L3 220.089L3 217.589H5.12461V217.214L5.12465 38.7862V38.4108ZM229.254 38.4108V42.9929H213.007V26.7465H217.589V35.9108V38.4108H220.089H229.254ZM210.507 42.9929V26.7465H205.925V50.0751H229.254V45.4929H213.007H210.507V42.9929ZM220.089 35.9108V26.7465H224.671V28.8286V31.3286H227.171H229.254V35.9108H220.089ZM227.171 28.8286V26.7465H229.254V28.8286H227.171ZM224.671 24.2465H220.089V5.5H224.671V24.2465ZM234.254 21.7465V5.5H250.5V21.7465H234.254ZM28.8286 227.171V229.254H26.7465V227.171H28.8286ZM26.7465 224.671H28.8286H31.3286V227.171V229.254H35.9108V220.089H26.7465V224.671ZM26.7465 217.589H35.9108H38.4108V220.089V229.254H42.9929V213.007H26.7465V217.589ZM26.7465 210.507H42.9929H45.4929V213.007V229.254H50.0751L50.0751 205.925H26.7465V210.507ZM28.8286 250.5L28.8286 231.754H26.7465H24.2465V229.254V227.171H5.5L5.5 231.754H21.7465H24.2465L24.2465 234.254L24.2465 250.5H28.8286ZM24.2465 224.671V220.089H5.5L5.5 224.671H24.2465ZM35.9108 231.754H31.3286L31.3286 250.5H35.9108L35.9108 231.754ZM21.7465 250.5L21.7465 234.254H5.5L5.5 250.5H21.7465ZM234.254 234.254H250.5V250.5L234.254 250.5V234.254ZM5.5 21.7465L5.5 5.5L21.7465 5.5L21.7465 21.7465L5.5 21.7465ZM38.7861 7.62462L38.7861 23.8711L217.214 23.8711V7.62465L38.7861 7.62462ZM38.7861 248.375L38.7861 232.129L217.214 232.129V248.375L38.7861 248.375ZM248.375 38.7862L232.129 38.7862L232.129 217.214H248.375L248.375 38.7862ZM7.62465 38.7862L23.8711 38.7862L23.8711 217.214H7.62461L7.62465 38.7862Z" fill="url(#paint1_linear_1011_1467)"/>
</g>
<defs>
<filter id="filter0_d_1011_1467" x="0" y="0" width="256" height="256" filterUnits="userSpaceOnUse" color-interpolation-filters="sRGB">
<feFlood flood-opacity="0" result="BackgroundImageFix"/>
<feColorMatrix in="SourceAlpha" type="matrix" values="0 0 0 0 0 0 0 0 0 0 0 0 0 0 0 0 0 0 127 0" result="hardAlpha"/>
<feOffset/>
<feGaussianBlur stdDeviation="1.5"/>
<feComposite in2="hardAlpha" operator="out"/>
<feColorMatrix type="matrix" values="0 0 0 0 1 0 0 0 0 0.882353 0 0 0 0 0.411765 0 0 0 0.6 0"/>
<feBlend mode="normal" in2="BackgroundImageFix" result="effect1_dropShadow_1011_1467"/>
<feBlend mode="normal" in="SourceGraphic" in2="effect1_dropShadow_1011_1467" result="shape"/>
</filter>
<linearGradient id="paint0_linear_1011_1467" x1="81.2949" y1="62.3156" x2="192.928" y2="163.172" gradientUnits="userSpaceOnUse">
<stop stop-color="#CA9328"/>
<stop offset="0.51" stop-color="#FFE169"/>
<stop offset="1" stop-color="#CA9328"/>
</linearGradient>
<linearGradient id="paint1_linear_1011_1467" x1="-29" y1="-28" x2="286.5" y2="278.5" gradientUnits="userSpaceOnUse">
<stop stop-color="#CA9328"/>
<stop offset="0.46875" stop-color="#FFE169"/>
<stop offset="1" stop-color="#CA9328"/>
</linearGradient>
</defs>
</svg>
