<svg width="256" height="256" viewBox="0 0 256 256" fill="none" xmlns="http://www.w3.org/2000/svg">
<path d="M195.13 171.182L193.956 168.981L189.701 160.911L188.527 158.71L183.391 148.878C182.658 149.172 181.851 149.025 180.677 148.512L186.106 158.71H160.574V146.971H177.449L173.34 145.063L172.753 144.77H152.724L150.816 145.724L148.689 146.971H158.373V160.911H187.207L191.462 168.981H145.167V149.172C144.649 149.466 144.073 149.641 143.48 149.686H142.966V171.182H192.636L197.258 179.986H129.026V146.971H140.912C140.779 146.245 140.73 145.507 140.765 144.77H75.7619C75.6152 138.974 75.6152 133.031 75.7619 127.162H140.472C140.457 126.422 140.531 125.683 140.692 124.961H129.026V105.885H142.966V122.613C143.732 122.586 144.492 122.764 145.167 123.127V105.885H177.009C177.568 107.227 177.962 108.631 178.182 110.067C178.696 113.295 179.063 120.852 179.21 124.594L181.337 123.567C181.19 119.605 180.824 112.782 180.383 109.774C180.144 108.453 179.801 107.152 179.356 105.885C179.127 105.128 178.832 104.391 178.476 103.684C175.394 96.5678 168.938 89.5245 160.574 84.022L158.373 82.7014C154.221 80.2072 149.788 78.2124 145.167 76.7587L142.966 76.0984C138.422 74.8322 133.742 74.1179 129.026 73.9707H126.825C122.874 74.023 118.94 74.4903 115.087 75.3647L112.886 75.8782C107.492 77.3213 102.312 79.4674 97.4786 82.2612L95.2776 83.5818C84.0524 90.625 76.2021 100.603 74.7348 109.774C74.2212 113.222 73.8544 121.366 73.7076 124.961C73.6533 125.448 73.6288 125.938 73.6343 126.428V127.162C73.4875 133.031 73.4875 138.974 73.6343 144.77C73.6343 144.917 73.7076 145.137 73.7076 145.283L72.8272 146.971L66.8845 158.71L65.784 160.911L61.6754 168.981L60.5749 171.182L54.999 182.187H201L195.13 171.182ZM145.167 79.1064C149.786 80.6915 154.215 82.783 158.373 85.3426L160.574 86.8099C167.618 91.7255 173.12 97.7416 176.055 103.684H145.167V79.1064ZM129.026 76.1717C133.751 76.3319 138.436 77.0962 142.966 78.4461V103.684H129.026V76.1717ZM115.087 77.6391C118.937 76.7405 122.872 76.2487 126.825 76.1717V124.961H115.087V77.6391ZM97.4786 84.9758C102.269 82.0076 107.456 79.735 112.886 78.226V124.961H97.4786V84.9758ZM76.9358 110.067C78.183 101.997 85.2263 93.0462 95.2776 86.3698V124.961H75.9087C76.0554 121.366 76.3489 113.369 76.9358 110.067ZM75.175 146.971H95.2776V158.71H69.3056L75.175 146.971ZM112.886 179.986H58.5206L62.996 171.182H112.886V179.986ZM112.886 168.981H64.0965L68.2051 160.911H97.4786V146.971H112.886V168.981ZM126.825 179.986H115.087V146.971H126.825V179.986ZM151.403 126.428L152.284 126.942L152.724 127.162H174.221L174.734 126.942L178.036 125.181L178.549 124.961H148.762L151.403 126.428Z" fill="url(#paint0_linear_1011_1438)"/>
<path d="M184.198 123.64C183.391 123.127 182.511 123.2 181.337 123.567L179.209 124.594L178.549 124.961L178.036 125.181L174.734 126.942L174.22 127.162L168.645 129.73L166.957 130.463H158.667L157.64 129.876L152.724 127.162L152.284 126.942L151.403 126.428L148.762 124.961C147.148 124.08 146.048 123.493 145.167 123.127C144.492 122.764 143.732 122.586 142.966 122.613C142.654 122.642 142.353 122.743 142.086 122.907C141.694 123.097 141.36 123.388 141.115 123.748C140.87 124.108 140.725 124.527 140.692 124.961C140.531 125.683 140.457 126.422 140.472 127.162C140.472 128.042 140.545 128.996 140.618 130.17C140.692 131.344 140.692 133.471 140.765 135.599V141.762C140.691 142.763 140.691 143.769 140.765 144.77C140.73 145.507 140.779 146.245 140.912 146.971C140.909 147.499 141.061 148.016 141.347 148.459C141.634 148.902 142.044 149.252 142.526 149.465L142.966 149.612H143.48C144.073 149.567 144.649 149.392 145.167 149.099L146.781 148.071L148.689 146.898L150.816 145.65L152.724 144.697C154.338 143.89 155.952 143.156 157.64 142.496L158.593 142.129H166.957L168.645 142.862L172.753 144.697L173.34 144.99L177.449 146.898L178.256 147.264L180.677 148.438C181.851 148.952 182.658 149.099 183.391 148.805L183.832 148.585C185.519 147.631 185.519 145.87 185.446 141.468C185.446 139.781 185.446 137.58 185.519 134.792C185.519 133.178 185.592 131.857 185.666 130.683C185.812 126.428 185.886 124.594 184.198 123.64ZM157.64 140.221C154.938 141.225 152.314 142.426 149.789 143.816L148.028 144.77L145.607 146.311C144.58 146.971 143.7 147.558 143.406 147.411C143.113 147.264 142.966 146.237 142.966 144.77C142.893 143.769 142.893 142.763 142.966 141.762V135.599C142.893 133.398 142.819 131.564 142.819 130.097C142.819 128.629 142.673 127.969 142.673 127.162C142.673 126.355 142.819 125.034 143.113 124.814H143.26C143.847 124.814 145.387 125.621 148.175 127.162L150.303 128.336L151.257 128.849L157.64 132.444V140.221ZM166.444 140.001H159.841V132.664H166.444V140.001ZM183.465 130.683C183.391 131.857 183.318 133.178 183.318 134.865C183.245 137.653 183.245 139.854 183.245 141.615C183.318 144.697 183.318 146.457 182.804 146.751H182.291C181.236 146.378 180.207 145.937 179.209 145.43L177.889 144.77L174.22 143.009L168.645 140.515V132.151C170.992 131.124 173.413 130.023 175.688 128.849L179.063 127.162L181.484 125.915C182.291 125.548 182.878 125.401 183.098 125.548C183.318 125.695 183.538 127.749 183.465 130.683Z" fill="url(#paint1_linear_1011_1438)"/>
<g filter="url(#filter0_d_1011_1438)">
<path fill-rule="evenodd" clip-rule="evenodd" d="M227.171 24.2465V5.5H231.754V21.7465V24.2465H229.254H227.171ZM231.754 24.2465H234.254H250.5V28.8286H231.754V26.7465V24.2465ZM231.754 35.9108V31.3286H250.5V35.9108H231.754ZM229.254 52.5751H229.629L229.629 203.425H229.254H205.925H203.425V205.925V229.254V229.629L52.5751 229.629V229.254L52.5751 205.925V203.425H50.0751H26.7465H26.3711L26.3711 52.5751H26.7465L50.0751 52.5751H52.5751V50.0751L52.5751 26.7465V26.3711L203.425 26.3711V26.7465V50.0751V52.5751H205.925H229.254ZM45.4929 26.7465L45.4929 42.9929V45.4929H42.9929L26.7465 45.4929V50.0751L50.0751 50.0751L50.0751 26.7465L45.4929 26.7465ZM42.9929 26.7465L42.9929 42.9929L26.7465 42.9929V38.4108H35.9108H38.4108V35.9108V26.7465H42.9929ZM35.9108 26.7465V35.9108H26.7465V31.3286H28.8286H31.3286V28.8286V26.7465L35.9108 26.7465ZM28.8286 26.7465H26.7465V28.8286H28.8286V26.7465ZM35.9108 24.2465L35.9108 5.5L31.3286 5.5L31.3286 24.2465L35.9108 24.2465ZM28.8286 24.2465L28.8286 5.5L24.2465 5.5L24.2465 21.7465L24.2465 24.2465L21.7465 24.2465L5.5 24.2465L5.5 28.8286L24.2465 28.8286V26.7465V24.2465H26.7465H28.8286ZM24.2465 31.3286V35.9108L5.5 35.9108L5.5 31.3286L24.2465 31.3286ZM231.754 224.671V220.089H250.5V224.671H231.754ZM231.754 229.254V227.171H250.5V231.754H234.254L231.754 231.754V229.254ZM231.754 231.754V234.254V250.5L227.171 250.5V231.754H229.254H231.754ZM220.089 231.754H224.671V250.5H220.089V231.754ZM229.254 205.925V210.507H213.007H210.507V213.007V229.254H205.925V205.925H229.254ZM217.589 229.254H213.007V213.007H229.254V217.589H220.089H217.589V220.089V229.254ZM220.089 220.089H229.254V224.671H227.171H224.671V227.171V229.254H220.089V220.089ZM227.171 227.171H229.254V229.254H227.171V227.171ZM5.12465 38.4108H3V35.9108V31.3286V28.8286V24.2465V21.7465L3 5.5L3 3H3H5.5L21.7465 3L24.2465 3L28.8286 3L31.3286 3L35.9108 3L38.4108 3V5.12462H38.7861L217.214 5.12465H217.589V3H220.089H224.671H227.171H231.754H234.254H250.5H253V5.5V21.7465V24.2465V28.8286V31.3286V35.9108V38.4108H250.875V38.7862L250.875 217.214V217.589H253V220.089V224.671V227.171V231.754V234.254V250.5V253H250.5L234.254 253H231.754L227.171 253H224.671H220.089H217.589V250.875H217.214L38.7861 250.875H38.4108V253H35.9108H31.3286H28.8286H24.2465H21.7465H5.5H3V250.5V234.254V231.754L3 227.171L3 224.671L3 220.089L3 217.589H5.12461V217.214L5.12465 38.7862V38.4108ZM229.254 38.4108V42.9929H213.007V26.7465H217.589V35.9108V38.4108H220.089H229.254ZM210.507 42.9929V26.7465H205.925V50.0751H229.254V45.4929H213.007H210.507V42.9929ZM220.089 35.9108V26.7465H224.671V28.8286V31.3286H227.171H229.254V35.9108H220.089ZM227.171 28.8286V26.7465H229.254V28.8286H227.171ZM224.671 24.2465H220.089V5.5H224.671V24.2465ZM234.254 21.7465V5.5H250.5V21.7465H234.254ZM28.8286 227.171V229.254H26.7465V227.171H28.8286ZM26.7465 224.671H28.8286H31.3286V227.171V229.254H35.9108V220.089H26.7465V224.671ZM26.7465 217.589H35.9108H38.4108V220.089V229.254H42.9929V213.007H26.7465V217.589ZM26.7465 210.507H42.9929H45.4929V213.007V229.254H50.0751L50.0751 205.925H26.7465V210.507ZM28.8286 250.5L28.8286 231.754H26.7465H24.2465V229.254V227.171H5.5L5.5 231.754H21.7465H24.2465L24.2465 234.254L24.2465 250.5H28.8286ZM24.2465 224.671V220.089H5.5L5.5 224.671H24.2465ZM35.9108 231.754H31.3286L31.3286 250.5H35.9108L35.9108 231.754ZM21.7465 250.5L21.7465 234.254H5.5L5.5 250.5H21.7465ZM234.254 234.254H250.5V250.5L234.254 250.5V234.254ZM5.5 21.7465L5.5 5.5L21.7465 5.5L21.7465 21.7465L5.5 21.7465ZM38.7861 7.62462L38.7861 23.8711L217.214 23.8711V7.62465L38.7861 7.62462ZM38.7861 248.375L38.7861 232.129L217.214 232.129V248.375L38.7861 248.375ZM248.375 38.7862L232.129 38.7862L232.129 217.214H248.375L248.375 38.7862ZM7.62465 38.7862L23.8711 38.7862L23.8711 217.214H7.62461L7.62465 38.7862Z" fill="url(#paint2_linear_1011_1438)"/>
</g>
<defs>
<filter id="filter0_d_1011_1438" x="0" y="0" width="256" height="256" filterUnits="userSpaceOnUse" color-interpolation-filters="sRGB">
<feFlood flood-opacity="0" result="BackgroundImageFix"/>
<feColorMatrix in="SourceAlpha" type="matrix" values="0 0 0 0 0 0 0 0 0 0 0 0 0 0 0 0 0 0 127 0" result="hardAlpha"/>
<feOffset/>
<feGaussianBlur stdDeviation="1.5"/>
<feComposite in2="hardAlpha" operator="out"/>
<feColorMatrix type="matrix" values="0 0 0 0 1 0 0 0 0 0.882353 0 0 0 0 0.411765 0 0 0 0.6 0"/>
<feBlend mode="normal" in2="BackgroundImageFix" result="effect1_dropShadow_1011_1438"/>
<feBlend mode="normal" in="SourceGraphic" in2="effect1_dropShadow_1011_1438" result="shape"/>
</filter>
<linearGradient id="paint0_linear_1011_1438" x1="76.2241" y1="115.592" x2="181.315" y2="173.699" gradientUnits="userSpaceOnUse">
<stop stop-color="#CA9328"/>
<stop offset="0.51" stop-color="#FFE169"/>
<stop offset="1" stop-color="#CA9328"/>
</linearGradient>
<linearGradient id="paint1_linear_1011_1438" x1="140.23" y1="126.509" x2="181.286" y2="144.3" gradientUnits="userSpaceOnUse">
<stop stop-color="#CA9328"/>
<stop offset="0.51" stop-color="#FFE169"/>
<stop offset="1" stop-color="#CA9328"/>
</linearGradient>
<linearGradient id="paint2_linear_1011_1438" x1="-29" y1="-28" x2="286.5" y2="278.5" gradientUnits="userSpaceOnUse">
<stop stop-color="#CA9328"/>
<stop offset="0.46875" stop-color="#FFE169"/>
<stop offset="1" stop-color="#CA9328"/>
</linearGradient>
</defs>
</svg>
