<svg width="256" height="256" viewBox="0 0 256 256" fill="none" xmlns="http://www.w3.org/2000/svg">
<path d="M199.997 127.341C199.942 123.714 199.186 120.132 197.772 116.795C197.51 116.136 197.183 115.477 196.856 114.818C194.537 110.259 191.065 106.395 186.79 103.618C182.515 100.841 177.588 99.2481 172.507 99H170.543C163.471 99.1607 156.708 101.955 151.562 106.843C151.04 107.236 150.577 107.702 150.187 108.227C146.658 111.95 144.212 116.579 143.118 121.607C139.911 117.52 134.74 112.841 128.326 112.841C121.911 112.841 115.955 117.586 112.813 121.211C111.86 117.264 110.099 113.56 107.643 110.336L106.399 108.82C103.84 105.901 100.726 103.528 97.2413 101.841C93.7563 100.155 89.9707 99.1884 86.1085 99H84.1449C79.5715 99.1271 75.09 100.323 71.0543 102.493L69.0907 103.68C65.0779 106.323 61.7807 109.93 59.4957 114.175C57.2106 118.421 56.0094 123.171 56 128C56 128.659 56 129.318 56.0655 129.977C56.3196 133.386 57.1381 136.727 58.4872 139.864L59.469 141.841C61.9112 146.316 65.4737 150.07 69.8025 152.729C74.1314 155.388 79.076 156.861 84.1449 157H86.1085C93.4428 156.627 100.365 153.471 105.483 148.168C105.941 147.641 106.399 147.18 106.792 146.652C111.202 141.454 113.616 134.837 113.599 128C113.59 126.566 113.481 125.134 113.272 123.716C115.955 120.355 121.453 114.818 128.326 114.818C135.199 114.818 139.78 120.289 142.66 124.243C142.529 125.232 142.464 126.286 142.398 127.341V128C142.388 128.44 142.409 128.881 142.464 129.318C142.658 134.05 144.008 138.661 146.394 142.742C148.78 146.823 152.129 150.249 156.144 152.716L158.107 153.836C161.971 155.8 166.217 156.88 170.543 157H172.507C176.798 156.785 180.987 155.609 184.769 153.557C188.551 151.504 191.831 148.627 194.368 145.136L195.481 143.555C198.19 139.289 199.726 134.377 199.932 129.318C199.986 128.881 200.008 128.44 199.997 128V127.341ZM69.0907 106.118V128H57.9636C57.9573 123.725 58.9634 119.509 60.8985 115.704C62.8337 111.898 65.642 108.612 69.0907 106.118ZM84.1449 155.023C79.6142 154.897 75.1881 153.623 71.2756 151.319C67.3631 149.015 64.0904 145.755 61.7599 141.841H84.1449V155.023ZM84.1449 139.864H60.7126C59.1892 136.775 58.2777 133.417 58.0291 129.977H84.1449V139.864ZM84.1449 128H71.0543V104.8C75.0219 102.421 79.5287 101.105 84.1449 100.977V128ZM86.1085 100.977C89.6962 101.173 93.2096 102.084 96.4453 103.656C99.6811 105.229 102.575 107.432 104.959 110.139L86.1085 127.275V100.977ZM86.1085 155.023V130.505L104.043 146.85C99.2935 151.742 92.8926 154.659 86.1085 155.023ZM105.352 145.334L87.2867 128.857L106.203 111.655C108.747 115.047 110.452 119.001 111.177 123.189C111.377 124.145 111.508 125.114 111.57 126.089C111.624 126.724 111.646 127.362 111.635 128C111.648 134.345 109.421 140.489 105.352 145.334ZM156.144 150.343C152.7 147.999 149.848 144.877 147.814 141.227C145.78 137.577 144.621 133.499 144.427 129.318H156.144V150.343ZM144.362 127.341V126.88C144.427 125.825 144.558 124.77 144.689 123.782C145.526 118.474 147.919 113.539 151.562 109.611L169.169 127.341H144.362ZM170.543 155.023C166.183 154.918 161.913 153.741 158.107 151.595V129.318H170.543V155.023ZM170.543 125.957L152.936 108.227C157.733 103.732 163.993 101.154 170.543 100.977V125.957ZM172.507 100.977C177.054 101.221 181.466 102.618 185.333 105.038C189.201 107.457 192.399 110.822 194.63 114.818H172.507V100.977ZM172.507 155.023V130.307L192.732 144.082C190.371 147.295 187.333 149.942 183.837 151.834C180.34 153.726 176.471 154.815 172.507 155.023ZM193.91 142.434L174.536 129.318H197.968C197.763 133.97 196.365 138.488 193.91 142.434ZM172.507 127.341V116.795H195.612C197.121 120.109 197.945 123.697 198.034 127.341H172.507Z" fill="url(#paint0_linear_1011_1411)"/>
<g filter="url(#filter0_d_1011_1411)">
<path fill-rule="evenodd" clip-rule="evenodd" d="M227.171 24.2465V5.5H231.754V21.7465V24.2465H229.254H227.171ZM231.754 24.2465H234.254H250.5V28.8286H231.754V26.7465V24.2465ZM231.754 35.9108V31.3286H250.5V35.9108H231.754ZM229.254 52.5751H229.629L229.629 203.425H229.254H205.925H203.425V205.925V229.254V229.629L52.5751 229.629V229.254L52.5751 205.925V203.425H50.0751H26.7465H26.3711L26.3711 52.5751H26.7465L50.0751 52.5751H52.5751V50.0751L52.5751 26.7465V26.3711L203.425 26.3711V26.7465V50.0751V52.5751H205.925H229.254ZM45.4929 26.7465L45.4929 42.9929V45.4929H42.9929L26.7465 45.4929V50.0751L50.0751 50.0751L50.0751 26.7465L45.4929 26.7465ZM42.9929 26.7465L42.9929 42.9929L26.7465 42.9929V38.4108H35.9108H38.4108V35.9108V26.7465H42.9929ZM35.9108 26.7465V35.9108H26.7465V31.3286H28.8286H31.3286V28.8286V26.7465L35.9108 26.7465ZM28.8286 26.7465H26.7465V28.8286H28.8286V26.7465ZM35.9108 24.2465L35.9108 5.5L31.3286 5.5L31.3286 24.2465L35.9108 24.2465ZM28.8286 24.2465L28.8286 5.5L24.2465 5.5L24.2465 21.7465L24.2465 24.2465L21.7465 24.2465L5.5 24.2465L5.5 28.8286L24.2465 28.8286V26.7465V24.2465H26.7465H28.8286ZM24.2465 31.3286V35.9108L5.5 35.9108L5.5 31.3286L24.2465 31.3286ZM231.754 224.671V220.089H250.5V224.671H231.754ZM231.754 229.254V227.171H250.5V231.754H234.254L231.754 231.754V229.254ZM231.754 231.754V234.254V250.5L227.171 250.5V231.754H229.254H231.754ZM220.089 231.754H224.671V250.5H220.089V231.754ZM229.254 205.925V210.507H213.007H210.507V213.007V229.254H205.925V205.925H229.254ZM217.589 229.254H213.007V213.007H229.254V217.589H220.089H217.589V220.089V229.254ZM220.089 220.089H229.254V224.671H227.171H224.671V227.171V229.254H220.089V220.089ZM227.171 227.171H229.254V229.254H227.171V227.171ZM5.12465 38.4108H3V35.9108V31.3286V28.8286V24.2465V21.7465L3 5.5L3 3H3H5.5L21.7465 3L24.2465 3L28.8286 3L31.3286 3L35.9108 3L38.4108 3V5.12462H38.7861L217.214 5.12465H217.589V3H220.089H224.671H227.171H231.754H234.254H250.5H253V5.5V21.7465V24.2465V28.8286V31.3286V35.9108V38.4108H250.875V38.7862L250.875 217.214V217.589H253V220.089V224.671V227.171V231.754V234.254V250.5V253H250.5L234.254 253H231.754L227.171 253H224.671H220.089H217.589V250.875H217.214L38.7861 250.875H38.4108V253H35.9108H31.3286H28.8286H24.2465H21.7465H5.5H3V250.5V234.254V231.754L3 227.171L3 224.671L3 220.089L3 217.589H5.12461V217.214L5.12465 38.7862V38.4108ZM229.254 38.4108V42.9929H213.007V26.7465H217.589V35.9108V38.4108H220.089H229.254ZM210.507 42.9929V26.7465H205.925V50.0751H229.254V45.4929H213.007H210.507V42.9929ZM220.089 35.9108V26.7465H224.671V28.8286V31.3286H227.171H229.254V35.9108H220.089ZM227.171 28.8286V26.7465H229.254V28.8286H227.171ZM224.671 24.2465H220.089V5.5H224.671V24.2465ZM234.254 21.7465V5.5H250.5V21.7465H234.254ZM28.8286 227.171V229.254H26.7465V227.171H28.8286ZM26.7465 224.671H28.8286H31.3286V227.171V229.254H35.9108V220.089H26.7465V224.671ZM26.7465 217.589H35.9108H38.4108V220.089V229.254H42.9929V213.007H26.7465V217.589ZM26.7465 210.507H42.9929H45.4929V213.007V229.254H50.0751L50.0751 205.925H26.7465V210.507ZM28.8286 250.5L28.8286 231.754H26.7465H24.2465V229.254V227.171H5.5L5.5 231.754H21.7465H24.2465L24.2465 234.254L24.2465 250.5H28.8286ZM24.2465 224.671V220.089H5.5L5.5 224.671H24.2465ZM35.9108 231.754H31.3286L31.3286 250.5H35.9108L35.9108 231.754ZM21.7465 250.5L21.7465 234.254H5.5L5.5 250.5H21.7465ZM234.254 234.254H250.5V250.5L234.254 250.5V234.254ZM5.5 21.7465L5.5 5.5L21.7465 5.5L21.7465 21.7465L5.5 21.7465ZM38.7861 7.62462L38.7861 23.8711L217.214 23.8711V7.62465L38.7861 7.62462ZM38.7861 248.375L38.7861 232.129L217.214 232.129V248.375L38.7861 248.375ZM248.375 38.7862L232.129 38.7862L232.129 217.214H248.375L248.375 38.7862ZM7.62465 38.7862L23.8711 38.7862L23.8711 217.214H7.62461L7.62465 38.7862Z" fill="url(#paint1_linear_1011_1411)"/>
</g>
<defs>
<filter id="filter0_d_1011_1411" x="0" y="0" width="256" height="256" filterUnits="userSpaceOnUse" color-interpolation-filters="sRGB">
<feFlood flood-opacity="0" result="BackgroundImageFix"/>
<feColorMatrix in="SourceAlpha" type="matrix" values="0 0 0 0 0 0 0 0 0 0 0 0 0 0 0 0 0 0 127 0" result="hardAlpha"/>
<feOffset/>
<feGaussianBlur stdDeviation="1.5"/>
<feComposite in2="hardAlpha" operator="out"/>
<feColorMatrix type="matrix" values="0 0 0 0 1 0 0 0 0 0.882353 0 0 0 0 0.411765 0 0 0 0.6 0"/>
<feBlend mode="normal" in2="BackgroundImageFix" result="effect1_dropShadow_1011_1411"/>
<feBlend mode="normal" in="SourceGraphic" in2="effect1_dropShadow_1011_1411" result="shape"/>
</filter>
<linearGradient id="paint0_linear_1011_1411" x1="59.8356" y1="115.985" x2="197.802" y2="139.967" gradientUnits="userSpaceOnUse">
<stop stop-color="#CA9328"/>
<stop offset="0.51" stop-color="#FFE169"/>
<stop offset="1" stop-color="#CA9328"/>
</linearGradient>
<linearGradient id="paint1_linear_1011_1411" x1="-29" y1="-28" x2="286.5" y2="278.5" gradientUnits="userSpaceOnUse">
<stop stop-color="#CA9328"/>
<stop offset="0.46875" stop-color="#FFE169"/>
<stop offset="1" stop-color="#CA9328"/>
</linearGradient>
</defs>
</svg>
