<svg width="256" height="256" viewBox="0 0 256 256" fill="none" xmlns="http://www.w3.org/2000/svg">
<path d="M199.069 97.6883C197.441 96.2212 194.849 97.3827 192.136 98.5441L190.267 99.3388C185.669 101.157 180.707 101.828 175.799 101.295L173.207 101.05L169.831 100.561C167.902 100.317 165.973 100.011 164.164 99.8889C159.71 99.6301 155.244 100.147 150.962 101.417L149.093 102.028C143.166 104.064 137.546 106.923 132.394 110.525L130.887 111.565L127.933 113.704L124.979 111.565L123.472 110.525C118.32 106.923 112.7 104.064 106.773 102.028L104.904 101.417C100.622 100.147 96.1565 99.6301 91.702 99.8889C89.8935 100.011 88.0246 100.317 86.0352 100.561L82.6593 101.05L80.0671 101.295C75.1594 101.828 70.1974 101.157 65.5988 99.3388L63.73 98.5441C61.0172 97.3827 58.4249 96.2212 56.7972 97.6883C55.1696 99.1553 56.1944 103.068 58.4249 109.119C58.9675 110.525 59.5703 112.176 60.1732 113.948C61.2583 117.127 62.042 119.633 62.5846 121.712C62.7654 122.506 62.9463 123.179 63.1271 123.851C63.5491 125.746 63.7902 127.213 63.9711 128.497C64.3353 131.13 65.1085 133.689 66.2619 136.077C67.3138 138.224 68.5869 140.253 70.0598 142.129C70.4085 142.624 70.7912 143.094 71.2052 143.535C75.2798 148.17 80.2439 151.914 85.7941 154.538L87.4821 155.332C89.1715 156.136 90.9262 156.791 92.7268 157.288C96.6071 158.422 100.625 158.998 104.663 159C112.828 158.931 120.839 156.742 127.933 152.643C135.027 156.742 143.038 158.931 151.203 159C155.241 158.998 159.259 158.422 163.139 157.288C164.94 156.791 166.695 156.136 168.384 155.332L170.072 154.538C175.622 151.914 180.586 148.17 184.661 143.535C185.075 143.094 185.458 142.624 185.806 142.129C187.279 140.253 188.552 138.224 189.604 136.077C190.758 133.689 191.531 131.13 191.895 128.497C192.076 127.213 192.317 125.746 192.739 123.851C192.92 123.179 193.101 122.506 193.281 121.712C193.824 119.633 194.608 117.127 195.693 113.948C196.296 112.176 196.899 110.525 197.441 109.119C199.672 103.068 200.998 99.3998 199.069 97.6883ZM105.507 103.557C110.872 105.207 116.479 108.019 122.327 111.931L111.174 124.952C107.617 120.245 103.759 117.616 99.7198 117.005C98.1365 116.857 96.544 116.836 94.9574 116.944H93.9928L105.507 103.557ZM116.539 138.278C111.341 140.626 105.609 141.493 99.961 140.784L97.9113 140.417C95.9209 139.969 93.9815 139.313 92.124 138.461C88.2885 136.67 84.907 134.015 82.2373 130.698L81.0919 129.231C78.7736 125.941 77.0583 122.255 76.028 118.35C79.2231 118.594 82.4785 118.778 85.7338 118.839H95.0177C96.5037 118.73 97.9961 118.75 99.4787 118.9C103.176 119.47 106.673 121.977 109.968 126.419L111.053 127.947C113.164 131.229 114.999 134.684 116.539 138.278ZM61.8611 113.337C61.2583 111.564 60.6554 109.914 60.1129 108.447C58.4249 103.862 56.9781 99.9501 58.0029 99.0332C59.0278 98.1163 61.0172 99.3388 63.0065 100.256L64.9357 101.05C69.2078 102.759 73.7939 103.509 78.3791 103.251L64.0314 120.061C63.4888 118.166 62.8257 115.966 61.8611 113.337ZM67.8896 135.221C66.7984 133.016 66.0849 130.639 65.7796 128.191C65.4879 126.173 65.0854 124.173 64.5739 122.201L80.9713 103.068L86.2764 102.395C88.2055 102.09 90.0743 101.845 91.8226 101.723C95.7839 101.496 99.7551 101.93 103.578 103.007L91.5211 117.005H85.7941C82.177 116.944 78.56 116.699 75.0032 116.394L73.7975 116.271L74.0386 117.494C75.0276 122.252 77.0227 126.736 79.8862 130.637L71.2655 140.723C69.9534 139.014 68.8219 137.17 67.8896 135.221ZM86.9998 153.132C82.7196 151.053 76.9926 147.569 72.4109 142.129L81.0316 132.104C83.8432 135.552 87.3881 138.311 91.4006 140.172C93.0426 140.944 94.7601 141.538 96.5248 141.945L86.9998 153.132ZM93.2091 155.577C91.6938 155.085 90.2048 154.514 88.7481 153.865L98.5744 142.434C100.308 142.724 102.062 142.867 103.819 142.862C108.773 142.865 113.661 141.714 118.107 139.5L118.89 139.133L118.529 138.339C116.843 134.179 114.742 130.206 112.259 126.48L123.834 112.97L127.029 115.293V151.053C122.628 153.621 109.305 160.223 93.2091 155.577ZM150.359 103.557L161.873 116.944H160.909C159.322 116.836 157.73 116.857 156.146 117.005C152.107 117.616 148.309 120.245 144.692 124.952L133.539 111.931C139.387 108.019 144.994 105.207 150.359 103.557ZM163.501 118.839H170.132C173.388 118.778 176.643 118.594 179.838 118.35C178.808 122.255 177.092 125.941 174.774 129.231L173.629 130.698C170.959 134.015 167.578 136.67 163.742 138.461C161.885 139.313 159.945 139.969 157.955 140.417L155.905 140.784C150.257 141.493 144.525 140.626 139.327 138.278C140.864 134.663 142.699 131.187 144.813 127.886L145.898 126.358C149.234 121.875 152.73 119.368 156.387 118.839C157.87 118.689 159.362 118.669 160.848 118.778L163.501 118.839ZM162.657 155.577C146.561 160.223 133.238 153.621 128.837 151.053V115.293L132.032 112.97L143.607 126.48C141.124 130.206 139.023 134.179 137.337 138.339L136.976 139.133L137.759 139.5C142.206 141.714 147.093 142.865 152.047 142.862C153.804 142.867 155.558 142.724 157.292 142.434L167.118 153.865C165.661 154.514 164.172 155.085 162.657 155.577ZM168.866 153.132L159.341 141.945C161.106 141.538 162.823 140.944 164.465 140.172C168.478 138.311 172.023 135.552 174.834 132.104L183.455 142.129C178.873 147.569 173.146 151.053 168.866 153.132ZM190.086 128.191C189.781 130.639 189.068 133.016 187.976 135.221C187.044 137.17 185.913 139.014 184.601 140.723L175.98 130.637C178.843 126.736 180.838 122.252 181.827 117.494L182.069 116.271L180.863 116.394C177.306 116.699 173.689 116.944 170.072 117.005H164.345L152.288 103.007C156.111 101.93 160.082 101.496 164.043 101.723C165.792 101.845 167.661 102.09 169.59 102.395L174.895 103.068L191.292 122.201C190.781 124.173 190.378 126.173 190.086 128.191ZM195.753 108.447C195.211 109.914 194.608 111.564 194.005 113.337C193.402 115.11 192.377 118.166 191.835 120.061L177.487 103.251C182.072 103.509 186.658 102.759 190.93 101.05L192.86 100.256C194.849 99.3388 197.079 98.3608 197.863 99.0332C198.647 99.7056 197.441 103.862 195.753 108.447Z" fill="url(#paint0_linear_1011_1384)"/>
<g filter="url(#filter0_d_1011_1384)">
<path fill-rule="evenodd" clip-rule="evenodd" d="M227.171 24.2465V5.5H231.754V21.7465V24.2465H229.254H227.171ZM231.754 24.2465H234.254H250.5V28.8286H231.754V26.7465V24.2465ZM231.754 35.9108V31.3286H250.5V35.9108H231.754ZM229.254 52.5751H229.629L229.629 203.425H229.254H205.925H203.425V205.925V229.254V229.629L52.5751 229.629V229.254L52.5751 205.925V203.425H50.0751H26.7465H26.3711L26.3711 52.5751H26.7465L50.0751 52.5751H52.5751V50.0751L52.5751 26.7465V26.3711L203.425 26.3711V26.7465V50.0751V52.5751H205.925H229.254ZM45.4929 26.7465L45.4929 42.9929V45.4929H42.9929L26.7465 45.4929V50.0751L50.0751 50.0751L50.0751 26.7465L45.4929 26.7465ZM42.9929 26.7465L42.9929 42.9929L26.7465 42.9929V38.4108H35.9108H38.4108V35.9108V26.7465H42.9929ZM35.9108 26.7465V35.9108H26.7465V31.3286H28.8286H31.3286V28.8286V26.7465L35.9108 26.7465ZM28.8286 26.7465H26.7465V28.8286H28.8286V26.7465ZM35.9108 24.2465L35.9108 5.5L31.3286 5.5L31.3286 24.2465L35.9108 24.2465ZM28.8286 24.2465L28.8286 5.5L24.2465 5.5L24.2465 21.7465L24.2465 24.2465L21.7465 24.2465L5.5 24.2465L5.5 28.8286L24.2465 28.8286V26.7465V24.2465H26.7465H28.8286ZM24.2465 31.3286V35.9108L5.5 35.9108L5.5 31.3286L24.2465 31.3286ZM231.754 224.671V220.089H250.5V224.671H231.754ZM231.754 229.254V227.171H250.5V231.754H234.254L231.754 231.754V229.254ZM231.754 231.754V234.254V250.5L227.171 250.5V231.754H229.254H231.754ZM220.089 231.754H224.671V250.5H220.089V231.754ZM229.254 205.925V210.507H213.007H210.507V213.007V229.254H205.925V205.925H229.254ZM217.589 229.254H213.007V213.007H229.254V217.589H220.089H217.589V220.089V229.254ZM220.089 220.089H229.254V224.671H227.171H224.671V227.171V229.254H220.089V220.089ZM227.171 227.171H229.254V229.254H227.171V227.171ZM5.12465 38.4108H3V35.9108V31.3286V28.8286V24.2465V21.7465L3 5.5L3 3H3H5.5L21.7465 3L24.2465 3L28.8286 3L31.3286 3L35.9108 3L38.4108 3V5.12462H38.7861L217.214 5.12465H217.589V3H220.089H224.671H227.171H231.754H234.254H250.5H253V5.5V21.7465V24.2465V28.8286V31.3286V35.9108V38.4108H250.875V38.7862L250.875 217.214V217.589H253V220.089V224.671V227.171V231.754V234.254V250.5V253H250.5L234.254 253H231.754L227.171 253H224.671H220.089H217.589V250.875H217.214L38.7861 250.875H38.4108V253H35.9108H31.3286H28.8286H24.2465H21.7465H5.5H3V250.5V234.254V231.754L3 227.171L3 224.671L3 220.089L3 217.589H5.12461V217.214L5.12465 38.7862V38.4108ZM229.254 38.4108V42.9929H213.007V26.7465H217.589V35.9108V38.4108H220.089H229.254ZM210.507 42.9929V26.7465H205.925V50.0751H229.254V45.4929H213.007H210.507V42.9929ZM220.089 35.9108V26.7465H224.671V28.8286V31.3286H227.171H229.254V35.9108H220.089ZM227.171 28.8286V26.7465H229.254V28.8286H227.171ZM224.671 24.2465H220.089V5.5H224.671V24.2465ZM234.254 21.7465V5.5H250.5V21.7465H234.254ZM28.8286 227.171V229.254H26.7465V227.171H28.8286ZM26.7465 224.671H28.8286H31.3286V227.171V229.254H35.9108V220.089H26.7465V224.671ZM26.7465 217.589H35.9108H38.4108V220.089V229.254H42.9929V213.007H26.7465V217.589ZM26.7465 210.507H42.9929H45.4929V213.007V229.254H50.0751L50.0751 205.925H26.7465V210.507ZM28.8286 250.5L28.8286 231.754H26.7465H24.2465V229.254V227.171H5.5L5.5 231.754H21.7465H24.2465L24.2465 234.254L24.2465 250.5H28.8286ZM24.2465 224.671V220.089H5.5L5.5 224.671H24.2465ZM35.9108 231.754H31.3286L31.3286 250.5H35.9108L35.9108 231.754ZM21.7465 250.5L21.7465 234.254H5.5L5.5 250.5H21.7465ZM234.254 234.254H250.5V250.5L234.254 250.5V234.254ZM5.5 21.7465L5.5 5.5L21.7465 5.5L21.7465 21.7465L5.5 21.7465ZM38.7861 7.62462L38.7861 23.8711L217.214 23.8711V7.62465L38.7861 7.62462ZM38.7861 248.375L38.7861 232.129L217.214 232.129V248.375L38.7861 248.375ZM248.375 38.7862L232.129 38.7862L232.129 217.214H248.375L248.375 38.7862ZM7.62465 38.7862L23.8711 38.7862L23.8711 217.214H7.62461L7.62465 38.7862Z" fill="url(#paint1_linear_1011_1384)"/>
</g>
<defs>
<filter id="filter0_d_1011_1384" x="0" y="0" width="256" height="256" filterUnits="userSpaceOnUse" color-interpolation-filters="sRGB">
<feFlood flood-opacity="0" result="BackgroundImageFix"/>
<feColorMatrix in="SourceAlpha" type="matrix" values="0 0 0 0 0 0 0 0 0 0 0 0 0 0 0 0 0 0 127 0" result="hardAlpha"/>
<feOffset/>
<feGaussianBlur stdDeviation="1.5"/>
<feComposite in2="hardAlpha" operator="out"/>
<feColorMatrix type="matrix" values="0 0 0 0 1 0 0 0 0 0.882353 0 0 0 0 0.411765 0 0 0 0.6 0"/>
<feBlend mode="normal" in2="BackgroundImageFix" result="effect1_dropShadow_1011_1384"/>
<feBlend mode="normal" in="SourceGraphic" in2="effect1_dropShadow_1011_1384" result="shape"/>
</filter>
<linearGradient id="paint0_linear_1011_1384" x1="57.0685" y1="90.7258" x2="200.796" y2="148.634" gradientUnits="userSpaceOnUse">
<stop stop-color="#CA9328"/>
<stop offset="0.51" stop-color="#FFE169"/>
<stop offset="1" stop-color="#CA9328"/>
</linearGradient>
<linearGradient id="paint1_linear_1011_1384" x1="-29" y1="-28" x2="286.5" y2="278.5" gradientUnits="userSpaceOnUse">
<stop stop-color="#CA9328"/>
<stop offset="0.46875" stop-color="#FFE169"/>
<stop offset="1" stop-color="#CA9328"/>
</linearGradient>
</defs>
</svg>
