<svg width="256" height="256" viewBox="0 0 256 256" fill="none" xmlns="http://www.w3.org/2000/svg">
<path d="M199.908 130.241V129.603L182.099 126.892L180.557 126.679L174.125 125.723L172.53 125.457L163.386 124.075L161.366 139.704C156.316 134.6 151.266 129.444 146.162 124.394L144.833 123.011L138.773 117.057L137.391 115.728L133.935 112.379L133.776 112.167L131.968 110.465L131.649 110.093L130.214 108.764C127.662 106.266 125.376 104.139 123.356 102.279L121.389 100.471C114 93.773 109.96 91.0087 104.856 88.6164L101.295 87.128L99.8061 86.5964C90.1309 83.1409 81.1468 82.7688 74.8206 82.7156H57.5966L56.2676 91.2213H73.1195C77.3723 91.3276 81.7315 91.4871 90.9283 95.3679C92.5857 96.0544 94.1856 96.8721 95.7128 97.8132H95.7659L96.5633 98.3448L97.9455 99.3017L98.4771 99.727H98.5303C101.075 101.714 103.425 103.939 105.547 106.372L107.195 108.233C109.96 111.529 112.937 115.409 116.445 120.034C119.263 123.756 122.453 128.008 126.227 132.74L126.759 133.378L127.556 134.441L132.978 141.192L134.307 142.84C136.221 145.179 137.975 147.359 139.73 149.379L141.006 150.921L142.335 152.462L143.983 154.323C155.572 167.454 163.705 173.408 173.434 174.046H175.294C178.3 174.107 181.287 173.546 184.066 172.398C188 170.59 190.923 167.613 193.209 163.998L194.06 162.563C196.052 158.687 197.501 154.554 198.366 150.283C198.472 149.698 198.632 149.06 198.738 148.422C199.806 142.425 200.198 136.326 199.908 130.241ZM173.859 127.264L180.291 128.221L179.919 130.666L179.653 132.58L177.846 144.595L177.527 146.668L175.879 157.566L168.755 156.503L170.191 148.316L170.457 146.774L173.859 127.264ZM145.79 126.254C151.053 131.464 156.21 136.727 161.366 141.99L162.483 143.212L164.715 125.882L172.264 127.052L168.862 146.508L142.654 142.574L145.79 126.254ZM58.1282 89.6265L58.9256 84.3104H72.6411L71.0462 89.6265H58.1282ZM96.9886 96.8032C95.2509 95.688 93.4187 94.7274 91.5131 93.9325C82.0505 89.9454 77.3192 89.786 73.1727 89.6796H72.7474L74.3422 84.3636C80.562 84.3636 89.6525 84.6826 99.3809 88.1912L96.9886 96.8032ZM98.424 97.7069L100.869 88.6696C101.986 89.0949 103.049 89.5733 104.165 90.1049C108.737 92.2314 112.458 94.6768 118.678 100.205L99.1151 98.2385L98.424 97.7069ZM101.401 100.046L120.698 101.96C123.144 104.192 125.961 106.851 129.257 110.04L107.993 106.797C105.972 104.381 103.768 102.124 101.401 100.046ZM126.599 130.666C123.197 126.36 120.326 122.586 117.721 119.131C115.116 115.675 112.033 111.635 109.535 108.658L129.736 111.741L126.599 130.666ZM133.35 139.172L127.981 132.474V132.368L131.384 112.007L132.713 113.336L137.125 117.642L133.35 139.172ZM140.793 143.903L140.102 147.412L134.68 140.82L138.454 118.971L144.461 124.925L141.059 142.362L140.793 143.903ZM141.431 148.954L142.335 144.116L168.596 148.103L167.161 156.237L144.78 152.888L141.431 148.954ZM173.646 172.504C164.768 171.972 157.113 166.603 146.428 154.748L166.895 157.832L168.49 158.097L175.666 159.161L173.646 172.504ZM183.375 171.015C180.8 172.09 178.03 172.615 175.241 172.557L177.208 159.373L177.474 157.832L178.909 148.209L192.093 162.882C189.967 166.39 187.149 169.314 183.375 171.015ZM192.944 161.393L179.228 146.136L181.036 133.909L197.037 149.113C196.186 153.313 194.911 157.672 192.944 161.393ZM197.356 147.253L181.355 131.995L181.886 128.487L198.366 130.985C198.56 136.428 198.222 141.876 197.356 147.253Z" fill="url(#paint0_linear_1011_1354)"/>
<path d="M182.949 81.5958L177.639 116.708L179.216 116.946L184.526 81.8343L182.949 81.5958Z" fill="url(#paint1_linear_1011_1354)"/>
<path d="M193.528 88.3532L189.288 118.142L190.867 118.367L195.107 88.5779L193.528 88.3532Z" fill="url(#paint2_linear_1011_1354)"/>
<g filter="url(#filter0_d_1011_1354)">
<path fill-rule="evenodd" clip-rule="evenodd" d="M227.171 24.2465V5.5H231.754V21.7465V24.2465H229.254H227.171ZM231.754 24.2465H234.254H250.5V28.8286H231.754V26.7465V24.2465ZM231.754 35.9108V31.3286H250.5V35.9108H231.754ZM229.254 52.5751H229.629L229.629 203.425H229.254H205.925H203.425V205.925V229.254V229.629L52.5751 229.629V229.254L52.5751 205.925V203.425H50.0751H26.7465H26.3711L26.3711 52.5751H26.7465L50.0751 52.5751H52.5751V50.0751L52.5751 26.7465V26.3711L203.425 26.3711V26.7465V50.0751V52.5751H205.925H229.254ZM45.4929 26.7465L45.4929 42.9929V45.4929H42.9929L26.7465 45.4929V50.0751L50.0751 50.0751L50.0751 26.7465L45.4929 26.7465ZM42.9929 26.7465L42.9929 42.9929L26.7465 42.9929V38.4108H35.9108H38.4108V35.9108V26.7465H42.9929ZM35.9108 26.7465V35.9108H26.7465V31.3286H28.8286H31.3286V28.8286V26.7465L35.9108 26.7465ZM28.8286 26.7465H26.7465V28.8286H28.8286V26.7465ZM35.9108 24.2465L35.9108 5.5L31.3286 5.5L31.3286 24.2465L35.9108 24.2465ZM28.8286 24.2465L28.8286 5.5L24.2465 5.5L24.2465 21.7465L24.2465 24.2465L21.7465 24.2465L5.5 24.2465L5.5 28.8286L24.2465 28.8286V26.7465V24.2465H26.7465H28.8286ZM24.2465 31.3286V35.9108L5.5 35.9108L5.5 31.3286L24.2465 31.3286ZM231.754 224.671V220.089H250.5V224.671H231.754ZM231.754 229.254V227.171H250.5V231.754H234.254L231.754 231.754V229.254ZM231.754 231.754V234.254V250.5L227.171 250.5V231.754H229.254H231.754ZM220.089 231.754H224.671V250.5H220.089V231.754ZM229.254 205.925V210.507H213.007H210.507V213.007V229.254H205.925V205.925H229.254ZM217.589 229.254H213.007V213.007H229.254V217.589H220.089H217.589V220.089V229.254ZM220.089 220.089H229.254V224.671H227.171H224.671V227.171V229.254H220.089V220.089ZM227.171 227.171H229.254V229.254H227.171V227.171ZM5.12465 38.4108H3V35.9108V31.3286V28.8286V24.2465V21.7465L3 5.5L3 3H3H5.5L21.7465 3L24.2465 3L28.8286 3L31.3286 3L35.9108 3L38.4108 3V5.12462H38.7861L217.214 5.12465H217.589V3H220.089H224.671H227.171H231.754H234.254H250.5H253V5.5V21.7465V24.2465V28.8286V31.3286V35.9108V38.4108H250.875V38.7862L250.875 217.214V217.589H253V220.089V224.671V227.171V231.754V234.254V250.5V253H250.5L234.254 253H231.754L227.171 253H224.671H220.089H217.589V250.875H217.214L38.7861 250.875H38.4108V253H35.9108H31.3286H28.8286H24.2465H21.7465H5.5H3V250.5V234.254V231.754L3 227.171L3 224.671L3 220.089L3 217.589H5.12461V217.214L5.12465 38.7862V38.4108ZM229.254 38.4108V42.9929H213.007V26.7465H217.589V35.9108V38.4108H220.089H229.254ZM210.507 42.9929V26.7465H205.925V50.0751H229.254V45.4929H213.007H210.507V42.9929ZM220.089 35.9108V26.7465H224.671V28.8286V31.3286H227.171H229.254V35.9108H220.089ZM227.171 28.8286V26.7465H229.254V28.8286H227.171ZM224.671 24.2465H220.089V5.5H224.671V24.2465ZM234.254 21.7465V5.5H250.5V21.7465H234.254ZM28.8286 227.171V229.254H26.7465V227.171H28.8286ZM26.7465 224.671H28.8286H31.3286V227.171V229.254H35.9108V220.089H26.7465V224.671ZM26.7465 217.589H35.9108H38.4108V220.089V229.254H42.9929V213.007H26.7465V217.589ZM26.7465 210.507H42.9929H45.4929V213.007V229.254H50.0751L50.0751 205.925H26.7465V210.507ZM28.8286 250.5L28.8286 231.754H26.7465H24.2465V229.254V227.171H5.5L5.5 231.754H21.7465H24.2465L24.2465 234.254L24.2465 250.5H28.8286ZM24.2465 224.671V220.089H5.5L5.5 224.671H24.2465ZM35.9108 231.754H31.3286L31.3286 250.5H35.9108L35.9108 231.754ZM21.7465 250.5L21.7465 234.254H5.5L5.5 250.5H21.7465ZM234.254 234.254H250.5V250.5L234.254 250.5V234.254ZM5.5 21.7465L5.5 5.5L21.7465 5.5L21.7465 21.7465L5.5 21.7465ZM38.7861 7.62462L38.7861 23.8711L217.214 23.8711V7.62465L38.7861 7.62462ZM38.7861 248.375L38.7861 232.129L217.214 232.129V248.375L38.7861 248.375ZM248.375 38.7862L232.129 38.7862L232.129 217.214H248.375L248.375 38.7862ZM7.62465 38.7862L23.8711 38.7862L23.8711 217.214H7.62461L7.62465 38.7862Z" fill="url(#paint3_linear_1011_1354)"/>
</g>
<defs>
<filter id="filter0_d_1011_1354" x="0" y="0" width="256" height="256" filterUnits="userSpaceOnUse" color-interpolation-filters="sRGB">
<feFlood flood-opacity="0" result="BackgroundImageFix"/>
<feColorMatrix in="SourceAlpha" type="matrix" values="0 0 0 0 0 0 0 0 0 0 0 0 0 0 0 0 0 0 127 0" result="hardAlpha"/>
<feOffset/>
<feGaussianBlur stdDeviation="1.5"/>
<feComposite in2="hardAlpha" operator="out"/>
<feColorMatrix type="matrix" values="0 0 0 0 1 0 0 0 0 0.882353 0 0 0 0 0.411765 0 0 0 0.6 0"/>
<feBlend mode="normal" in2="BackgroundImageFix" result="effect1_dropShadow_1011_1354"/>
<feBlend mode="normal" in="SourceGraphic" in2="effect1_dropShadow_1011_1354" result="shape"/>
</filter>
<linearGradient id="paint0_linear_1011_1354" x1="48.841" y1="83.9383" x2="218.865" y2="169.086" gradientUnits="userSpaceOnUse">
<stop stop-color="#CA9328"/>
<stop offset="0.51" stop-color="#FFE169"/>
<stop offset="1" stop-color="#CA9328"/>
</linearGradient>
<linearGradient id="paint1_linear_1011_1354" x1="68.9879" y1="43.2759" x2="239.012" y2="128.423" gradientUnits="userSpaceOnUse">
<stop stop-color="#CA9328"/>
<stop offset="0.51" stop-color="#FFE169"/>
<stop offset="1" stop-color="#CA9328"/>
</linearGradient>
<linearGradient id="paint2_linear_1011_1354" x1="69.3241" y1="42.0439" x2="239.353" y2="127.191" gradientUnits="userSpaceOnUse">
<stop stop-color="#CA9328"/>
<stop offset="0.51" stop-color="#FFE169"/>
<stop offset="1" stop-color="#CA9328"/>
</linearGradient>
<linearGradient id="paint3_linear_1011_1354" x1="-29" y1="-28" x2="286.5" y2="278.5" gradientUnits="userSpaceOnUse">
<stop stop-color="#CA9328"/>
<stop offset="0.46875" stop-color="#FFE169"/>
<stop offset="1" stop-color="#CA9328"/>
</linearGradient>
</defs>
</svg>
