<svg width="256" height="256" viewBox="0 0 256 256" fill="none" xmlns="http://www.w3.org/2000/svg">
<path d="M194.916 155.71V140.501H197.897V139.65C198.445 131.315 193.821 123.772 186.886 121.704C182.324 120.304 178.126 121.764 175.754 122.981C175.367 121.379 174.496 119.935 173.259 118.845C172.314 117.98 171.162 117.372 169.914 117.08C170.331 116.015 170.538 114.879 170.522 113.734C170.513 111.362 169.649 109.073 168.089 107.286V78.451H170.035C170.234 79.4817 170.786 80.4106 171.597 81.0771C172.408 81.7436 173.426 82.1058 174.476 82.101C175.686 82.101 176.847 81.6204 177.702 80.7647C178.558 79.9091 179.039 78.7486 179.039 77.5385C179.039 76.3285 178.558 75.1679 177.702 74.3123C176.847 73.4567 175.686 72.976 174.476 72.976C173.426 72.9712 172.408 73.3334 171.597 73.9999C170.786 74.6664 170.234 75.5953 170.035 76.626H168.149V65.0676H87.8491V65.9801C87.91 69.5085 87.91 73.0977 87.91 76.626H85.2941C85.0956 75.5953 84.5431 74.6664 83.7322 73.9999C82.9213 73.3334 81.9029 72.9712 80.8533 72.976C79.6432 72.976 78.4827 73.4567 77.6271 74.3123C76.7715 75.1679 76.2908 76.3285 76.2908 77.5385C76.2908 78.7486 76.7715 79.9091 77.6271 80.7647C78.4827 81.6204 79.6432 82.101 80.8533 82.101C81.9029 82.1058 82.9213 81.7436 83.7322 81.0771C84.5431 80.4106 85.0956 79.4817 85.2941 78.451H87.91C87.91 82.9527 87.8491 87.4544 87.8491 91.8344C87.8491 96.2144 87.7883 102.176 87.7883 107.347C86.2632 109.126 85.422 111.391 85.4158 113.734C85.4254 115.051 85.6941 116.354 86.2066 117.567C85.1828 118.057 84.2226 118.67 83.3475 119.392C82.2048 120.3 81.2185 121.389 80.4275 122.616C75.0133 120.609 70.6941 120.487 67.5916 122.373C61.0824 126.266 59.3182 138.92 59.2574 139.467L59.1357 140.501H62.2991V155.71H54.999V166.66H61.6907V186.431C61.7032 187.284 61.9795 188.113 62.4816 188.803C63.0582 189.569 63.8703 190.125 64.7932 190.385H73.7966C74.7195 190.125 75.5316 189.569 76.1083 188.803C76.6103 188.113 76.8866 187.284 76.8991 186.431V166.66H180.316V186.431C180.329 187.284 180.605 188.113 181.107 188.803C181.684 189.569 182.496 190.125 183.419 190.385H192.422C193.345 190.125 194.157 189.569 194.734 188.803C195.236 188.113 195.512 187.284 195.525 186.431V166.66H201V155.71H194.916ZM171.982 76.626C172.153 76.0863 172.494 75.6166 172.955 75.2875C173.416 74.9585 173.971 74.7877 174.537 74.801C175.263 74.801 175.959 75.0894 176.473 75.6028C176.986 76.1162 177.274 76.8125 177.274 77.5385C177.274 78.2645 176.986 78.9609 176.473 79.4742C175.959 79.9876 175.263 80.276 174.537 80.276C173.971 80.2893 173.416 80.1185 172.955 79.7895C172.494 79.4604 172.153 78.9907 171.982 78.451C171.861 78.1619 171.799 77.8517 171.799 77.5385C171.799 77.2253 171.861 76.9151 171.982 76.626ZM80.8533 80.276C80.1273 80.276 79.431 79.9876 78.9176 79.4742C78.4042 78.9609 78.1158 78.2645 78.1158 77.5385C78.1158 76.8125 78.4042 76.1162 78.9176 75.6028C79.431 75.0894 80.1273 74.801 80.8533 74.801C81.4193 74.7877 81.9743 74.9585 82.4351 75.2875C82.8958 75.6166 83.2373 76.0863 83.4083 76.626C83.5288 76.9151 83.5908 77.2253 83.5908 77.5385C83.5908 77.8517 83.5288 78.1619 83.4083 78.451C83.2373 78.9907 82.8958 79.4604 82.4351 79.7895C81.9743 80.1185 81.4193 80.2893 80.8533 80.276ZM175.632 125.171C177.274 124.137 181.655 122.008 186.46 123.407C192.3 125.171 196.315 131.498 196.194 138.676H193.091L182.81 140.258C180.55 138.158 177.618 136.93 174.537 136.79H174.354C169.67 136.79 165.777 139.832 162.979 142.509C159.073 146.195 156.003 150.676 153.975 155.649H146.797C150.211 150.595 154.015 145.815 158.173 141.353C163.161 136 168.94 130.038 174.415 125.84L175.632 125.171ZM193.091 140.562V155.71H182.75V142.205L184.392 141.961L193.091 140.562ZM180.924 141.17V155.71H155.983C157.881 151.254 160.677 147.236 164.195 143.908C166.994 141.292 170.4 138.615 174.537 138.676C176.883 138.78 179.129 139.657 180.924 141.17ZM166.933 108.685C167.43 109.294 167.84 109.97 168.149 110.693C168.544 111.659 168.75 112.691 168.758 113.734C168.779 114.781 168.571 115.819 168.149 116.776C167.857 117.425 167.49 118.038 167.054 118.601L166.933 118.784V108.685ZM169.184 118.723C170.269 118.943 171.276 119.447 172.104 120.183C173.147 121.162 173.868 122.435 174.172 123.833C168.332 128.152 162.188 134.479 156.834 140.197C153.162 144.151 149.749 148.337 146.614 152.729L148.379 110.693H151.603C151.284 111.675 151.12 112.702 151.116 113.734C151.119 115.318 151.508 116.878 152.25 118.277C152.992 119.676 154.065 120.874 155.374 121.764C155.928 122.183 156.543 122.512 157.199 122.738C158.067 123.117 158.993 123.343 159.937 123.407H161.762C162.927 123.327 164.064 123.017 165.108 122.495C165.759 122.181 166.371 121.793 166.933 121.339C167.825 120.6 168.586 119.715 169.184 118.723ZM146.554 110.693L144.668 155.588V155.71H140.835L141.748 110.693V108.868L141.869 102.419L146.797 103.758L146.554 108.868V110.693ZM152.941 113.734C152.949 112.691 153.155 111.659 153.549 110.693C153.818 110.032 154.188 109.416 154.644 108.868C154.852 108.555 155.097 108.269 155.374 108.016V119.453C154.601 118.716 153.986 117.828 153.568 116.845C153.149 115.861 152.936 114.803 152.941 113.734ZM157.199 120.73V106.739C158.057 106.301 158.983 106.013 159.937 105.887V121.582C158.983 121.456 158.057 121.168 157.199 120.73ZM161.762 121.582V105.887C162.951 106.012 164.095 106.408 165.108 107.043V120.426C164.095 121.061 162.951 121.457 161.762 121.582ZM89.735 76.626C89.735 73.4018 89.735 70.1168 89.6742 66.8926H166.324V105.704C165.941 105.426 165.534 105.181 165.108 104.974C164.064 104.452 162.927 104.142 161.762 104.062H159.937C158.993 104.126 158.067 104.352 157.199 104.731C156.543 104.957 155.928 105.286 155.374 105.704C154.163 106.511 153.161 107.596 152.454 108.868H148.439L148.683 102.419L141.93 100.534L140.166 100.047L135.299 98.7086L133.474 98.2219L128.608 96.8836L127.695 96.7011L126.783 96.8836L120.091 98.5869L115.224 99.8036L113.46 100.229L107.316 101.75L107.498 108.868H103.544C102.927 107.836 102.147 106.911 101.233 106.13C100.671 105.675 100.059 105.288 99.4075 104.974C98.3636 104.452 97.2264 104.142 96.0617 104.062H94.2367C93.2924 104.126 92.3663 104.352 91.4992 104.731C90.8432 104.957 90.2273 105.286 89.6742 105.704H89.6133C89.6133 101.081 89.6742 96.3969 89.6742 91.8344C89.6742 87.2719 89.735 82.9527 89.735 78.451V76.626ZM140.105 101.933L139.984 108.868V110.693L139.071 155.71H135.299V100.655L140.105 101.933ZM133.474 100.108V155.71H128.608V98.8303L133.474 100.108ZM126.783 98.7694V155.71H121.916V99.9861L126.783 98.7694ZM120.091 100.473V155.71H116.38L115.468 110.693V108.868L115.346 101.629L120.091 100.473ZM114.555 155.71H112.426L110.783 153.276L109.384 110.693V108.868L109.202 103.21L113.521 102.115L113.643 108.868V110.693L114.555 155.71ZM103.058 113.734C103.057 115.579 102.411 117.365 101.233 118.784V108.685L101.354 108.868C101.811 109.416 102.18 110.032 102.449 110.693C102.843 111.659 103.05 112.691 103.058 113.734ZM99.4075 107.043V120.426C98.3948 121.061 97.2504 121.457 96.0617 121.582V105.887C97.2504 106.012 98.3948 106.408 99.4075 107.043ZM94.2367 105.887V121.582C93.2823 121.456 92.3565 121.168 91.4992 120.73V106.739C92.3565 106.301 93.2823 106.013 94.2367 105.887ZM87.7883 110.814C88.2087 109.79 88.8291 108.859 89.6133 108.077C89.6295 108.077 89.6449 108.071 89.6563 108.059C89.6677 108.048 89.6742 108.032 89.6742 108.016V119.453C89.3967 119.2 89.1515 118.914 88.9442 118.601C88.4658 118.068 88.0941 117.449 87.8491 116.776C87.4326 115.817 87.2252 114.78 87.2408 113.734C87.2342 112.735 87.4201 111.744 87.7883 110.814ZM84.4425 120.852C85.261 120.206 86.1366 119.636 87.0583 119.149C87.755 120.18 88.643 121.068 89.6742 121.764C90.2273 122.183 90.8432 122.512 91.4992 122.738C92.3663 123.117 93.2924 123.343 94.2367 123.407H96.0617C97.2264 123.327 98.3636 123.017 99.4075 122.495C100.059 122.181 100.671 121.793 101.233 121.339C102.372 120.426 103.292 119.269 103.924 117.953C104.556 116.636 104.883 115.195 104.883 113.734C104.879 112.702 104.715 111.675 104.396 110.693H107.559L108.837 150.66C106.203 147.124 103.38 143.733 100.381 140.501C94.7842 134.479 88.2141 127.726 82.1308 123.407C82.7521 122.431 83.5337 121.568 84.4425 120.852ZM61.2649 138.676C61.8124 135.635 63.7591 126.814 68.5649 123.955C71.3024 122.312 75.3174 122.555 80.4883 124.624L80.975 124.806H80.9141C86.9366 129.065 93.4458 135.756 99.0425 141.718C102.595 145.566 105.907 149.629 108.958 153.885L110.236 155.71H103.118C101.092 150.855 98.0654 146.482 94.2367 142.874C91.3775 140.197 87.4233 137.034 82.6783 137.155C79.8607 137.258 77.1602 138.309 75.0133 140.136L64.1241 138.676H61.2649ZM101.111 155.71H76.2908V141.475C78.0866 139.961 80.3323 139.085 82.6783 138.98C86.815 138.92 90.2217 141.596 93.02 144.212C96.4572 147.466 99.2082 151.376 101.111 155.71ZM74.4658 141.9V155.71H64.1241V140.501L73.3099 141.718L74.4658 141.9ZM75.0741 186.431C75.0698 186.891 74.9209 187.338 74.6483 187.708C74.3665 188.137 73.9311 188.442 73.4316 188.56H65.1582C64.6587 188.442 64.2233 188.137 63.9416 187.708C63.669 187.338 63.52 186.891 63.5157 186.431V166.66H75.0741V186.431ZM193.7 186.431C193.695 186.891 193.546 187.338 193.274 187.708C192.992 188.137 192.557 188.442 192.057 188.56H183.784C183.284 188.442 182.849 188.137 182.567 187.708C182.294 187.338 182.145 186.891 182.141 186.431V166.66H193.7V186.431ZM199.175 164.835H56.824V157.535H199.175V164.835Z" fill="url(#paint0_linear_1011_1271)"/>
<path d="M92.1074 73.5844V97.4311L127.695 93.0511L163.891 97.4311V73.5844H92.1074ZM162.066 95.3628L127.695 91.2261L93.9324 95.3628V75.4094H162.066V95.3628Z" fill="url(#paint1_linear_1011_1271)"/>
<g filter="url(#filter0_d_1011_1271)">
<path fill-rule="evenodd" clip-rule="evenodd" d="M227.171 24.2465V5.5H231.754V21.7465V24.2465H229.254H227.171ZM231.754 24.2465H234.254H250.5V28.8286H231.754V26.7465V24.2465ZM231.754 35.9108V31.3286H250.5V35.9108H231.754ZM229.254 52.5751H229.629L229.629 203.425H229.254H205.925H203.425V205.925V229.254V229.629L52.5751 229.629V229.254L52.5751 205.925V203.425H50.0751H26.7465H26.3711L26.3711 52.5751H26.7465L50.0751 52.5751H52.5751V50.0751L52.5751 26.7465V26.3711L203.425 26.3711V26.7465V50.0751V52.5751H205.925H229.254ZM45.4929 26.7465L45.4929 42.9929V45.4929H42.9929L26.7465 45.4929V50.0751L50.0751 50.0751L50.0751 26.7465L45.4929 26.7465ZM42.9929 26.7465L42.9929 42.9929L26.7465 42.9929V38.4108H35.9108H38.4108V35.9108V26.7465H42.9929ZM35.9108 26.7465V35.9108H26.7465V31.3286H28.8286H31.3286V28.8286V26.7465L35.9108 26.7465ZM28.8286 26.7465H26.7465V28.8286H28.8286V26.7465ZM35.9108 24.2465L35.9108 5.5L31.3286 5.5L31.3286 24.2465L35.9108 24.2465ZM28.8286 24.2465L28.8286 5.5L24.2465 5.5L24.2465 21.7465L24.2465 24.2465L21.7465 24.2465L5.5 24.2465L5.5 28.8286L24.2465 28.8286V26.7465V24.2465H26.7465H28.8286ZM24.2465 31.3286V35.9108L5.5 35.9108L5.5 31.3286L24.2465 31.3286ZM231.754 224.671V220.089H250.5V224.671H231.754ZM231.754 229.254V227.171H250.5V231.754H234.254L231.754 231.754V229.254ZM231.754 231.754V234.254V250.5L227.171 250.5V231.754H229.254H231.754ZM220.089 231.754H224.671V250.5H220.089V231.754ZM229.254 205.925V210.507H213.007H210.507V213.007V229.254H205.925V205.925H229.254ZM217.589 229.254H213.007V213.007H229.254V217.589H220.089H217.589V220.089V229.254ZM220.089 220.089H229.254V224.671H227.171H224.671V227.171V229.254H220.089V220.089ZM227.171 227.171H229.254V229.254H227.171V227.171ZM5.12465 38.4108H3V35.9108V31.3286V28.8286V24.2465V21.7465L3 5.5L3 3H3H5.5L21.7465 3L24.2465 3L28.8286 3L31.3286 3L35.9108 3L38.4108 3V5.12462H38.7861L217.214 5.12465H217.589V3H220.089H224.671H227.171H231.754H234.254H250.5H253V5.5V21.7465V24.2465V28.8286V31.3286V35.9108V38.4108H250.875V38.7862L250.875 217.214V217.589H253V220.089V224.671V227.171V231.754V234.254V250.5V253H250.5L234.254 253H231.754L227.171 253H224.671H220.089H217.589V250.875H217.214L38.7861 250.875H38.4108V253H35.9108H31.3286H28.8286H24.2465H21.7465H5.5H3V250.5V234.254V231.754L3 227.171L3 224.671L3 220.089L3 217.589H5.12461V217.214L5.12465 38.7862V38.4108ZM229.254 38.4108V42.9929H213.007V26.7465H217.589V35.9108V38.4108H220.089H229.254ZM210.507 42.9929V26.7465H205.925V50.0751H229.254V45.4929H213.007H210.507V42.9929ZM220.089 35.9108V26.7465H224.671V28.8286V31.3286H227.171H229.254V35.9108H220.089ZM227.171 28.8286V26.7465H229.254V28.8286H227.171ZM224.671 24.2465H220.089V5.5H224.671V24.2465ZM234.254 21.7465V5.5H250.5V21.7465H234.254ZM28.8286 227.171V229.254H26.7465V227.171H28.8286ZM26.7465 224.671H28.8286H31.3286V227.171V229.254H35.9108V220.089H26.7465V224.671ZM26.7465 217.589H35.9108H38.4108V220.089V229.254H42.9929V213.007H26.7465V217.589ZM26.7465 210.507H42.9929H45.4929V213.007V229.254H50.0751L50.0751 205.925H26.7465V210.507ZM28.8286 250.5L28.8286 231.754H26.7465H24.2465V229.254V227.171H5.5L5.5 231.754H21.7465H24.2465L24.2465 234.254L24.2465 250.5H28.8286ZM24.2465 224.671V220.089H5.5L5.5 224.671H24.2465ZM35.9108 231.754H31.3286L31.3286 250.5H35.9108L35.9108 231.754ZM21.7465 250.5L21.7465 234.254H5.5L5.5 250.5H21.7465ZM234.254 234.254H250.5V250.5L234.254 250.5V234.254ZM5.5 21.7465L5.5 5.5L21.7465 5.5L21.7465 21.7465L5.5 21.7465ZM38.7861 7.62462L38.7861 23.8711L217.214 23.8711V7.62465L38.7861 7.62462ZM38.7861 248.375L38.7861 232.129L217.214 232.129V248.375L38.7861 248.375ZM248.375 38.7862L232.129 38.7862L232.129 217.214H248.375L248.375 38.7862ZM7.62465 38.7862L23.8711 38.7862L23.8711 217.214H7.62461L7.62465 38.7862Z" fill="url(#paint2_linear_1011_1271)"/>
</g>
<defs>
<filter id="filter0_d_1011_1271" x="0" y="0" width="256" height="256" filterUnits="userSpaceOnUse" color-interpolation-filters="sRGB">
<feFlood flood-opacity="0" result="BackgroundImageFix"/>
<feColorMatrix in="SourceAlpha" type="matrix" values="0 0 0 0 0 0 0 0 0 0 0 0 0 0 0 0 0 0 127 0" result="hardAlpha"/>
<feOffset/>
<feGaussianBlur stdDeviation="1.5"/>
<feComposite in2="hardAlpha" operator="out"/>
<feColorMatrix type="matrix" values="0 0 0 0 1 0 0 0 0 0.882353 0 0 0 0 0.411765 0 0 0 0.6 0"/>
<feBlend mode="normal" in2="BackgroundImageFix" result="effect1_dropShadow_1011_1271"/>
<feBlend mode="normal" in="SourceGraphic" in2="effect1_dropShadow_1011_1271" result="shape"/>
</filter>
<linearGradient id="paint0_linear_1011_1271" x1="62.439" y1="88.9083" x2="197.064" y2="186.035" gradientUnits="userSpaceOnUse">
<stop stop-color="#CA9328"/>
<stop offset="0.51" stop-color="#FFE169"/>
<stop offset="1" stop-color="#CA9328"/>
</linearGradient>
<linearGradient id="paint1_linear_1011_1271" x1="86.4925" y1="55.5655" x2="221.123" y2="152.692" gradientUnits="userSpaceOnUse">
<stop stop-color="#CA9328"/>
<stop offset="0.51" stop-color="#FFE169"/>
<stop offset="1" stop-color="#CA9328"/>
</linearGradient>
<linearGradient id="paint2_linear_1011_1271" x1="-29" y1="-28" x2="286.5" y2="278.5" gradientUnits="userSpaceOnUse">
<stop stop-color="#CA9328"/>
<stop offset="0.46875" stop-color="#FFE169"/>
<stop offset="1" stop-color="#CA9328"/>
</linearGradient>
</defs>
</svg>
